<svg width="auto" viewBox="0 0 1964 1723" fill="none" xmlns="http://www.w3.org/2000/svg">
<g filter="url(#filter0_d)">
<rect x="113.5" y="98.5" width="628" height="582" rx="17.5" stroke="#4859ED" strokeOpacity="0.6" strokeWidth="5"/>
</g>
<path opacity="0.8" d="M124.555 613.94V629H121.195V607.7H123.955L136.015 623.09V607.73H139.405V629H136.465L124.555 613.94ZM151.243 607.7H154.423L162.703 629H159.163L156.913 623.21H148.693L146.473 629H142.903L151.243 607.7ZM156.253 620.72L152.833 611.39L149.293 620.72H156.253ZM178.544 612.71C178.284 612.41 177.854 612.1 177.254 611.78C176.674 611.44 175.994 611.15 175.214 610.91C174.434 610.67 173.624 610.55 172.784 610.55C171.364 610.55 170.314 610.81 169.634 611.33C168.974 611.85 168.644 612.57 168.644 613.49C168.644 614.17 168.834 614.71 169.214 615.11C169.594 615.49 170.174 615.82 170.954 616.1C171.734 616.36 172.714 616.63 173.894 616.91C175.334 617.25 176.574 617.66 177.614 618.14C178.674 618.6 179.484 619.22 180.044 620C180.624 620.78 180.914 621.81 180.914 623.09C180.914 624.55 180.564 625.73 179.864 626.63C179.164 627.53 178.214 628.19 177.014 628.61C175.834 629.01 174.534 629.21 173.114 629.21C171.494 629.21 169.924 628.96 168.404 628.46C166.884 627.96 165.524 627.25 164.324 626.33L165.854 623.45C166.194 623.79 166.734 624.18 167.474 624.62C168.214 625.04 169.074 625.41 170.054 625.73C171.054 626.03 172.094 626.18 173.174 626.18C174.494 626.18 175.514 625.95 176.234 625.49C176.954 625.01 177.314 624.33 177.314 623.45C177.314 622.73 177.074 622.16 176.594 621.74C176.134 621.3 175.464 620.94 174.584 620.66C173.724 620.36 172.684 620.05 171.464 619.73C170.064 619.37 168.894 618.96 167.954 618.5C167.014 618.04 166.304 617.46 165.824 616.76C165.364 616.06 165.134 615.15 165.134 614.03C165.134 612.63 165.474 611.45 166.154 610.49C166.834 609.51 167.754 608.78 168.914 608.3C170.094 607.8 171.414 607.55 172.874 607.55C174.314 607.55 175.644 607.78 176.864 608.24C178.084 608.7 179.154 609.27 180.074 609.95L178.544 612.71ZM206.096 612.71C205.836 612.41 205.406 612.1 204.806 611.78C204.226 611.44 203.546 611.15 202.766 610.91C201.986 610.67 201.176 610.55 200.336 610.55C198.916 610.55 197.866 610.81 197.186 611.33C196.526 611.85 196.196 612.57 196.196 613.49C196.196 614.17 196.386 614.71 196.766 615.11C197.146 615.49 197.726 615.82 198.506 616.1C199.286 616.36 200.266 616.63 201.446 616.91C202.886 617.25 204.126 617.66 205.166 618.14C206.226 618.6 207.036 619.22 207.596 620C208.176 620.78 208.466 621.81 208.466 623.09C208.466 624.55 208.116 625.73 207.416 626.63C206.716 627.53 205.766 628.19 204.566 628.61C203.386 629.01 202.086 629.21 200.666 629.21C199.046 629.21 197.476 628.96 195.956 628.46C194.436 627.96 193.076 627.25 191.876 626.33L193.406 623.45C193.746 623.79 194.286 624.18 195.026 624.62C195.766 625.04 196.626 625.41 197.606 625.73C198.606 626.03 199.646 626.18 200.726 626.18C202.046 626.18 203.066 625.95 203.786 625.49C204.506 625.01 204.866 624.33 204.866 623.45C204.866 622.73 204.626 622.16 204.146 621.74C203.686 621.3 203.016 620.94 202.136 620.66C201.276 620.36 200.236 620.05 199.016 619.73C197.616 619.37 196.446 618.96 195.506 618.5C194.566 618.04 193.856 617.46 193.376 616.76C192.916 616.06 192.686 615.15 192.686 614.03C192.686 612.63 193.026 611.45 193.706 610.49C194.386 609.51 195.306 608.78 196.466 608.3C197.646 607.8 198.966 607.55 200.426 607.55C201.866 607.55 203.196 607.78 204.416 608.24C205.636 608.7 206.706 609.27 207.626 609.95L206.096 612.71ZM220.724 628.19C220.304 628.39 219.724 628.62 218.984 628.88C218.244 629.12 217.454 629.24 216.614 629.24C215.574 629.24 214.674 628.96 213.914 628.4C213.174 627.84 212.804 626.93 212.804 625.67V615.86H210.734V613.31H212.804V608.15H216.104V613.31H219.524V615.86H216.104V624.62C216.144 625.18 216.314 625.59 216.614 625.85C216.934 626.09 217.324 626.21 217.784 626.21C218.244 626.21 218.684 626.13 219.104 625.97C219.524 625.81 219.834 625.68 220.034 625.58L220.724 628.19ZM230.754 629.3C229.114 629.3 227.684 628.93 226.464 628.19C225.264 627.43 224.334 626.44 223.674 625.22C223.014 623.98 222.684 622.63 222.684 621.17C222.684 619.71 223.014 618.37 223.674 617.15C224.354 615.91 225.294 614.92 226.494 614.18C227.714 613.42 229.134 613.04 230.754 613.04C232.374 613.04 233.784 613.42 234.984 614.18C236.204 614.92 237.144 615.91 237.804 617.15C238.484 618.37 238.824 619.71 238.824 621.17C238.824 622.63 238.494 623.98 237.834 625.22C237.174 626.44 236.234 627.43 235.014 628.19C233.814 628.93 232.394 629.3 230.754 629.3ZM226.074 621.2C226.074 622.2 226.284 623.1 226.704 623.9C227.124 624.7 227.684 625.33 228.384 625.79C229.084 626.25 229.874 626.48 230.754 626.48C231.614 626.48 232.394 626.25 233.094 625.79C233.814 625.31 234.384 624.67 234.804 623.87C235.224 623.07 235.434 622.17 235.434 621.17C235.434 620.17 235.224 619.27 234.804 618.47C234.384 617.67 233.814 617.04 233.094 616.58C232.394 616.1 231.614 615.86 230.754 615.86C229.894 615.86 229.104 616.1 228.384 616.58C227.684 617.04 227.124 617.68 226.704 618.5C226.284 619.3 226.074 620.2 226.074 621.2ZM251.471 616.16C250.191 616.2 249.051 616.5 248.051 617.06C247.071 617.6 246.371 618.38 245.951 619.4V629H242.651V613.31H245.711V616.82C246.251 615.74 246.961 614.88 247.841 614.24C248.721 613.58 249.651 613.22 250.631 613.16C250.811 613.16 250.971 613.16 251.111 613.16C251.251 613.16 251.371 613.17 251.471 613.19V616.16ZM253.602 624.41C253.602 623.41 253.882 622.54 254.442 621.8C255.002 621.04 255.782 620.46 256.782 620.06C257.802 619.64 258.972 619.43 260.292 619.43C260.992 619.43 261.702 619.49 262.422 619.61C263.162 619.71 263.812 619.86 264.372 620.06V619.07C264.372 617.97 264.042 617.11 263.382 616.49C262.722 615.87 261.772 615.56 260.532 615.56C259.672 615.56 258.842 615.71 258.042 616.01C257.242 616.31 256.412 616.75 255.552 617.33L254.442 615.11C255.482 614.43 256.522 613.92 257.562 613.58C258.622 613.22 259.732 613.04 260.892 613.04C262.992 613.04 264.642 613.6 265.842 614.72C267.062 615.82 267.672 617.39 267.672 619.43V625.28C267.672 625.66 267.732 625.93 267.852 626.09C267.992 626.25 268.222 626.34 268.542 626.36V629C268.242 629.06 267.972 629.1 267.732 629.12C267.492 629.14 267.292 629.15 267.132 629.15C266.412 629.15 265.872 628.98 265.512 628.64C265.172 628.28 264.972 627.88 264.912 627.44L264.822 626.54C264.142 627.42 263.272 628.1 262.212 628.58C261.152 629.06 260.082 629.3 259.002 629.3C257.962 629.3 257.032 629.09 256.212 628.67C255.392 628.23 254.752 627.64 254.292 626.9C253.832 626.16 253.602 625.33 253.602 624.41ZM263.592 625.37C264.112 624.85 264.372 624.36 264.372 623.9V622.1C263.192 621.66 261.992 621.44 260.772 621.44C259.572 621.44 258.592 621.69 257.832 622.19C257.092 622.67 256.722 623.32 256.722 624.14C256.722 624.82 256.992 625.45 257.532 626.03C258.092 626.59 258.892 626.87 259.932 626.87C260.632 626.87 261.312 626.73 261.972 626.45C262.632 626.17 263.172 625.81 263.592 625.37ZM278.786 629.15C277.366 629.15 276.116 628.78 275.036 628.04C273.976 627.3 273.136 626.33 272.516 625.13C271.916 623.91 271.616 622.59 271.616 621.17C271.616 619.69 271.926 618.33 272.546 617.09C273.166 615.85 274.016 614.87 275.096 614.15C276.196 613.41 277.466 613.04 278.906 613.04C280.166 613.04 281.266 613.34 282.206 613.94C283.166 614.54 283.956 615.32 284.576 616.28V613.31H287.486V628.55C287.486 630.07 287.116 631.36 286.376 632.42C285.656 633.48 284.666 634.29 283.406 634.85C282.146 635.41 280.726 635.69 279.146 635.69C277.406 635.69 275.956 635.39 274.796 634.79C273.656 634.19 272.696 633.37 271.916 632.33L273.776 630.59C274.376 631.43 275.146 632.07 276.086 632.51C277.046 632.95 278.066 633.17 279.146 633.17C280.046 633.17 280.876 633 281.636 632.66C282.416 632.34 283.036 631.84 283.496 631.16C283.956 630.48 284.186 629.61 284.186 628.55V626.15C283.626 627.09 282.856 627.83 281.876 628.37C280.896 628.89 279.866 629.15 278.786 629.15ZM279.866 626.48C280.526 626.48 281.156 626.34 281.756 626.06C282.356 625.76 282.866 625.37 283.286 624.89C283.726 624.41 284.026 623.9 284.186 623.36V619.25C283.786 618.25 283.156 617.44 282.296 616.82C281.456 616.18 280.566 615.86 279.626 615.86C278.666 615.86 277.836 616.12 277.136 616.64C276.456 617.16 275.926 617.84 275.546 618.68C275.166 619.5 274.976 620.36 274.976 621.26C274.976 622.22 275.186 623.1 275.606 623.9C276.046 624.68 276.636 625.31 277.376 625.79C278.116 626.25 278.946 626.48 279.866 626.48ZM299.453 629.3C297.833 629.3 296.413 628.93 295.193 628.19C293.973 627.45 293.023 626.47 292.343 625.25C291.663 624.01 291.323 622.66 291.323 621.2C291.323 619.72 291.663 618.36 292.343 617.12C293.023 615.88 293.973 614.89 295.193 614.15C296.413 613.41 297.843 613.04 299.483 613.04C301.123 613.04 302.543 613.42 303.743 614.18C304.943 614.92 305.863 615.9 306.503 617.12C307.163 618.34 307.493 619.65 307.493 621.05C307.493 621.55 307.463 621.95 307.403 622.25H294.833C294.893 623.17 295.143 623.98 295.583 624.68C296.043 625.36 296.613 625.9 297.293 626.3C297.993 626.68 298.753 626.87 299.573 626.87C300.453 626.87 301.283 626.65 302.063 626.21C302.843 625.77 303.383 625.19 303.683 624.47L306.503 625.28C305.963 626.46 305.063 627.43 303.803 628.19C302.563 628.93 301.113 629.3 299.453 629.3ZM294.743 620.06H304.223C304.143 619.16 303.883 618.37 303.443 617.69C303.003 616.99 302.433 616.45 301.733 616.07C301.053 615.67 300.293 615.47 299.453 615.47C298.633 615.47 297.873 615.67 297.173 616.07C296.493 616.45 295.933 616.99 295.493 617.69C295.053 618.37 294.803 619.16 294.743 620.06Z" fill="#4859ED"/>
<path opacity="0.4" d="M659 515.338H342.915" stroke="#4859ED" strokeOpacity="0.6" strokeWidth="4" strokeLinecap="round" strokeLinejoin="round" strokeDasharray="9 9"/>
<g filter="url(#filter1_d)">
<circle cx="344.605" cy="514.602" r="7.59" fill="#4859ED"/>
</g>
<path d="M275 488.991C275 511.858 275 534.747 275 557.614C274.425 559.284 273.319 560.413 271.681 561C240.553 561 209.447 561 178.319 561C176.681 560.413 175.575 559.284 175 557.614C175 534.747 175 511.858 175 488.991C175.155 488.652 175.31 488.314 175.442 487.975C178.872 480.165 182.345 472.377 185.73 464.521C186.792 462.061 188.407 461.023 191.04 461.023C213.562 461.068 236.084 461.09 258.628 461C261.527 461 263.252 462.084 264.403 464.815C267.854 472.919 271.46 480.932 275 488.991ZM271.062 556.937C271.062 556.463 271.062 556.147 271.062 555.808C271.062 534.092 271.062 512.399 271.084 490.684C271.084 489.488 270.575 489.442 269.69 489.442C239.889 489.465 210.111 489.442 180.31 489.465C179.867 489.465 179.447 489.51 179.004 489.533C179.004 512.061 179.004 534.499 179.004 556.937C209.735 556.937 240.31 556.937 271.062 556.937ZM269.071 485.515C268.96 485.176 268.916 484.905 268.805 484.679C266.106 478.472 263.363 472.264 260.686 466.056C260.31 465.176 259.735 464.973 258.872 464.973C236.327 464.995 213.761 464.995 191.217 464.973C190.155 464.973 189.624 465.379 189.226 466.305C186.593 472.332 183.894 478.359 181.239 484.363C181.084 484.702 180.996 485.041 180.819 485.492C210.288 485.515 239.624 485.515 269.071 485.515Z" fill="#4859ED"/>
<path d="M175 557.614C175.575 559.284 176.681 560.413 178.319 561C177.212 561 176.106 561 175 561C175 559.871 175 558.743 175 557.614Z" fill="#4859ED"/>
<path d="M271.682 561C273.319 560.413 274.425 559.284 275.001 557.614C275.001 558.743 275.001 559.871 275.001 561C273.895 561 272.788 561 271.682 561Z" fill="#4859ED"/>
<path d="M211.105 524.25C211.105 516.959 211.105 509.645 211.105 502.354C211.105 499.375 212.61 497.817 215.508 497.817C219.158 497.817 222.809 497.794 226.459 497.84C227.145 497.84 227.831 498.043 228.517 498.156C228.738 498.201 228.937 498.291 229.158 498.269C231.348 498.133 233.539 497.907 235.729 497.84C237.897 497.772 240.087 497.749 242.256 497.84C243.981 497.907 245.685 497.975 247.433 497.885C251.171 497.682 254.955 497.817 258.716 497.817C261.238 497.817 262.787 499.307 262.963 501.858C262.986 502.196 262.986 502.535 262.986 502.873C262.986 517.14 262.986 531.384 262.986 545.65C262.986 546.395 262.941 547.162 262.764 547.885C262.322 549.578 260.773 550.684 258.804 550.706C254.999 550.752 251.194 550.842 247.41 550.661C245.817 550.593 244.291 550.571 242.698 550.661C238.937 550.842 235.176 550.864 231.415 550.661C229.822 550.571 228.273 550.593 226.702 550.661C222.919 550.842 219.114 550.752 215.309 550.706C212.698 550.684 211.149 549.013 211.149 546.35C211.083 538.991 211.105 531.632 211.105 524.25ZM259.092 501.767C255.264 501.767 251.614 501.79 247.963 501.745C247.056 501.722 246.857 502.061 246.857 502.919C246.879 517.162 246.879 531.429 246.857 545.695C246.857 546.598 247.123 546.869 247.986 546.846C251.238 546.801 254.468 546.779 257.72 546.869C258.893 546.891 259.114 546.485 259.114 545.402C259.092 531.338 259.092 517.275 259.092 503.19C259.092 502.761 259.092 502.354 259.092 501.767ZM243.03 546.824C243.03 531.722 243.03 516.824 243.03 501.835C238.981 501.835 235.021 501.835 230.928 501.835C230.928 502.332 230.928 502.783 230.928 503.212C230.928 517.23 230.928 531.271 230.928 545.289C230.928 545.514 230.95 545.74 230.928 545.966C230.862 546.598 231.149 546.824 231.747 546.824C232.853 546.801 233.959 546.824 235.065 546.824C237.676 546.824 240.287 546.824 243.03 546.824ZM226.99 546.733C226.99 531.722 226.99 516.801 226.99 501.835C222.964 501.835 219.025 501.835 215.021 501.835C215.021 516.824 215.021 531.745 215.021 546.733C219.025 546.733 222.941 546.733 226.99 546.733Z" fill="#4859ED"/>
<path d="M198.872 503.799C198.894 506.034 197.168 507.839 195.022 507.862C192.876 507.885 191.128 506.079 191.128 503.844C191.128 501.632 192.81 499.894 194.934 499.871C197.124 499.826 198.872 501.564 198.872 503.799Z" fill="#4859ED"/>
<path d="M198.872 516.101C198.872 518.359 197.146 520.097 194.956 520.074C192.766 520.052 191.085 518.268 191.107 516.011C191.129 513.822 192.854 512.083 194.978 512.061C197.146 512.061 198.872 513.867 198.872 516.101Z" fill="#4859ED"/>
<path d="M256.88 507.908C256.903 510.142 255.177 511.948 253.009 511.971C250.885 511.971 249.159 510.233 249.115 508.043C249.093 505.786 250.752 503.98 252.92 503.935C255.111 503.912 256.858 505.65 256.88 507.908Z" fill="#4859ED"/>
<path d="M240.885 507.952C240.885 510.165 239.093 511.97 236.947 511.948C234.845 511.903 233.097 510.119 233.075 507.975C233.053 505.785 234.845 503.957 237.013 503.934C239.181 503.934 240.907 505.718 240.885 507.952Z" fill="#4859ED"/>
<path d="M217.08 507.952C217.08 505.74 218.85 503.934 221.018 503.934C223.164 503.934 224.978 505.808 224.934 507.975C224.911 510.119 223.119 511.925 221.04 511.948C218.894 511.971 217.102 510.142 217.08 507.952Z" fill="#4859ED"/>
<path opacity="0.8" d="M398.314 263V241.7H412.504V244.67H401.674V251.03H410.734V253.82H401.674V263H398.314ZM416.167 244.73V241.1H419.467V244.73H416.167ZM416.167 263V247.31H419.467V263H416.167ZM424.363 241.1H427.663V258.47C427.663 259.27 427.783 259.78 428.023 260C428.263 260.22 428.563 260.33 428.923 260.33C429.323 260.33 429.703 260.29 430.063 260.21C430.423 260.13 430.723 260.03 430.963 259.91L431.443 262.52C430.963 262.72 430.393 262.89 429.733 263.03C429.073 263.17 428.483 263.24 427.963 263.24C426.843 263.24 425.963 262.93 425.323 262.31C424.683 261.67 424.363 260.79 424.363 259.67V241.1ZM441.366 263.3C439.746 263.3 438.326 262.93 437.106 262.19C435.886 261.45 434.936 260.47 434.256 259.25C433.576 258.01 433.236 256.66 433.236 255.2C433.236 253.72 433.576 252.36 434.256 251.12C434.936 249.88 435.886 248.89 437.106 248.15C438.326 247.41 439.756 247.04 441.396 247.04C443.036 247.04 444.456 247.42 445.656 248.18C446.856 248.92 447.776 249.9 448.416 251.12C449.076 252.34 449.406 253.65 449.406 255.05C449.406 255.55 449.376 255.95 449.316 256.25H436.746C436.806 257.17 437.056 257.98 437.496 258.68C437.956 259.36 438.526 259.9 439.206 260.3C439.906 260.68 440.666 260.87 441.486 260.87C442.366 260.87 443.196 260.65 443.976 260.21C444.756 259.77 445.296 259.19 445.596 258.47L448.416 259.28C447.876 260.46 446.976 261.43 445.716 262.19C444.476 262.93 443.026 263.3 441.366 263.3ZM436.656 254.06H446.136C446.056 253.16 445.796 252.37 445.356 251.69C444.916 250.99 444.346 250.45 443.646 250.07C442.966 249.67 442.206 249.47 441.366 249.47C440.546 249.47 439.786 249.67 439.086 250.07C438.406 250.45 437.846 250.99 437.406 251.69C436.966 252.37 436.716 253.16 436.656 254.06ZM474.33 246.71C474.07 246.41 473.64 246.1 473.04 245.78C472.46 245.44 471.78 245.15 471 244.91C470.22 244.67 469.41 244.55 468.57 244.55C467.15 244.55 466.1 244.81 465.42 245.33C464.76 245.85 464.43 246.57 464.43 247.49C464.43 248.17 464.62 248.71 465 249.11C465.38 249.49 465.96 249.82 466.74 250.1C467.52 250.36 468.5 250.63 469.68 250.91C471.12 251.25 472.36 251.66 473.4 252.14C474.46 252.6 475.27 253.22 475.83 254C476.41 254.78 476.7 255.81 476.7 257.09C476.7 258.55 476.35 259.73 475.65 260.63C474.95 261.53 474 262.19 472.8 262.61C471.62 263.01 470.32 263.21 468.9 263.21C467.28 263.21 465.71 262.96 464.19 262.46C462.67 261.96 461.31 261.25 460.11 260.33L461.64 257.45C461.98 257.79 462.52 258.18 463.26 258.62C464 259.04 464.86 259.41 465.84 259.73C466.84 260.03 467.88 260.18 468.96 260.18C470.28 260.18 471.3 259.95 472.02 259.49C472.74 259.01 473.1 258.33 473.1 257.45C473.1 256.73 472.86 256.16 472.38 255.74C471.92 255.3 471.25 254.94 470.37 254.66C469.51 254.36 468.47 254.05 467.25 253.73C465.85 253.37 464.68 252.96 463.74 252.5C462.8 252.04 462.09 251.46 461.61 250.76C461.15 250.06 460.92 249.15 460.92 248.03C460.92 246.63 461.26 245.45 461.94 244.49C462.62 243.51 463.54 242.78 464.7 242.3C465.88 241.8 467.2 241.55 468.66 241.55C470.1 241.55 471.43 241.78 472.65 242.24C473.87 242.7 474.94 243.27 475.86 243.95L474.33 246.71ZM487.66 263.3C486.04 263.3 484.62 262.93 483.4 262.19C482.18 261.45 481.23 260.47 480.55 259.25C479.87 258.01 479.53 256.66 479.53 255.2C479.53 253.72 479.87 252.36 480.55 251.12C481.23 249.88 482.18 248.89 483.4 248.15C484.62 247.41 486.05 247.04 487.69 247.04C489.33 247.04 490.75 247.42 491.95 248.18C493.15 248.92 494.07 249.9 494.71 251.12C495.37 252.34 495.7 253.65 495.7 255.05C495.7 255.55 495.67 255.95 495.61 256.25H483.04C483.1 257.17 483.35 257.98 483.79 258.68C484.25 259.36 484.82 259.9 485.5 260.3C486.2 260.68 486.96 260.87 487.78 260.87C488.66 260.87 489.49 260.65 490.27 260.21C491.05 259.77 491.59 259.19 491.89 258.47L494.71 259.28C494.17 260.46 493.27 261.43 492.01 262.19C490.77 262.93 489.32 263.3 487.66 263.3ZM482.95 254.06H492.43C492.35 253.16 492.09 252.37 491.65 251.69C491.21 250.99 490.64 250.45 489.94 250.07C489.26 249.67 488.5 249.47 487.66 249.47C486.84 249.47 486.08 249.67 485.38 250.07C484.7 250.45 484.14 250.99 483.7 251.69C483.26 252.37 483.01 253.16 482.95 254.06ZM508.112 250.16C506.832 250.2 505.692 250.5 504.692 251.06C503.712 251.6 503.012 252.38 502.592 253.4V263H499.292V247.31H502.352V250.82C502.892 249.74 503.602 248.88 504.482 248.24C505.362 247.58 506.292 247.22 507.272 247.16C507.452 247.16 507.612 247.16 507.752 247.16C507.892 247.16 508.012 247.17 508.112 247.19V250.16ZM515.792 263L509.822 247.31H513.242L517.712 259.94L522.182 247.31H525.362L519.392 263H515.792ZM535.213 263.3C533.593 263.3 532.173 262.93 530.953 262.19C529.733 261.45 528.783 260.47 528.103 259.25C527.423 258.01 527.083 256.66 527.083 255.2C527.083 253.72 527.423 252.36 528.103 251.12C528.783 249.88 529.733 248.89 530.953 248.15C532.173 247.41 533.603 247.04 535.243 247.04C536.883 247.04 538.303 247.42 539.503 248.18C540.703 248.92 541.623 249.9 542.263 251.12C542.923 252.34 543.253 253.65 543.253 255.05C543.253 255.55 543.223 255.95 543.163 256.25H530.593C530.653 257.17 530.903 257.98 531.343 258.68C531.803 259.36 532.373 259.9 533.053 260.3C533.753 260.68 534.513 260.87 535.333 260.87C536.213 260.87 537.043 260.65 537.823 260.21C538.603 259.77 539.143 259.19 539.443 258.47L542.263 259.28C541.723 260.46 540.823 261.43 539.563 262.19C538.323 262.93 536.873 263.3 535.213 263.3ZM530.503 254.06H539.983C539.903 253.16 539.643 252.37 539.203 251.69C538.763 250.99 538.193 250.45 537.493 250.07C536.813 249.67 536.053 249.47 535.213 249.47C534.393 249.47 533.633 249.67 532.933 250.07C532.253 250.45 531.693 250.99 531.253 251.69C530.813 252.37 530.563 253.16 530.503 254.06ZM555.665 250.16C554.385 250.2 553.245 250.5 552.245 251.06C551.265 251.6 550.565 252.38 550.145 253.4V263H546.845V247.31H549.905V250.82C550.445 249.74 551.155 248.88 552.035 248.24C552.915 247.58 553.845 247.22 554.825 247.16C555.005 247.16 555.165 247.16 555.305 247.16C555.445 247.16 555.565 247.17 555.665 247.19V250.16Z" fill="#4859ED"/>
<path d="M481.084 180.333H514.417C515.567 180.333 516.501 179.4 516.501 178.25C516.501 177.1 515.567 176.166 514.417 176.166H481.084C479.934 176.166 479 177.1 479 178.25C479 179.4 479.934 180.333 481.084 180.333Z" fill="#4859ED"/>
<path d="M529 161.583V153.25C529 151.238 528.4 149.375 527.408 147.779C527.383 147.729 527.379 147.671 527.35 147.625L514.467 126.917C512.554 123.842 509.246 122 505.621 122H452.383C448.754 122 445.45 123.842 443.537 126.917L430.654 147.625C430.629 147.667 430.629 147.712 430.604 147.758C429.604 149.354 429 151.229 429 153.25V161.583C429 165 430.679 168.017 433.233 169.917C430.679 171.817 429 174.829 429 178.25V186.583C429 190 430.679 193.017 433.233 194.917C430.679 196.817 429 199.829 429 203.25V211.583C429 217.325 433.675 222 439.417 222H466.733C467.887 222 468.817 221.067 468.817 219.917C468.817 218.767 467.883 217.833 466.733 217.833H439.417C435.971 217.833 433.167 215.029 433.167 211.583V203.25C433.167 199.8 435.971 197 439.417 197H474.267C475.417 197 476.35 196.067 476.35 194.917C476.35 193.767 475.417 192.833 474.267 192.833H439.417C435.971 192.833 433.167 190.029 433.167 186.583V178.25C433.167 174.8 435.971 172 439.417 172H518.583C522.029 172 524.833 174.804 524.833 178.25V186.583C524.833 187.5 524.608 188.421 524.175 189.308C523.671 190.342 524.096 191.587 525.129 192.096C526.166 192.604 527.412 192.179 527.916 191.142C528.637 189.675 529 188.146 529 186.583V178.25C529 174.833 527.321 171.817 524.766 169.917C527.321 168.012 529 165 529 161.583ZM447.075 129.117C448.221 127.271 450.204 126.167 452.379 126.167H505.617C507.792 126.167 509.775 127.271 510.925 129.117L519.521 142.929C519.208 142.896 518.904 142.833 518.583 142.833H439.417C439.096 142.833 438.792 142.896 438.479 142.925L447.075 129.117ZM524.833 161.583C524.833 165.029 522.029 167.833 518.583 167.833H439.417C435.971 167.833 433.167 165.029 433.167 161.583V153.25C433.167 149.8 435.971 147 439.417 147H518.583C522.029 147 524.833 149.8 524.833 153.25V161.583H524.833Z" fill="#4859ED"/>
<path d="M437.334 207.417C437.334 210.862 440.138 213.667 443.584 213.667C447.03 213.667 449.834 210.862 449.834 207.417C449.834 203.971 447.03 201.167 443.584 201.167C440.138 201.167 437.334 203.967 437.334 207.417ZM445.667 207.417C445.667 208.567 444.734 209.5 443.584 209.5C442.434 209.5 441.501 208.567 441.501 207.417C441.501 206.267 442.434 205.333 443.584 205.333C444.734 205.333 445.667 206.267 445.667 207.417Z" fill="#4859ED"/>
<path d="M514.416 192.833C514.037 192.833 513.658 192.854 513.287 192.887C509.816 187.679 503.987 184.5 497.75 184.5C488.05 184.5 480.046 191.904 479.096 201.358C474.3 202.283 470.667 206.517 470.667 211.583C470.667 217.325 475.342 222 481.083 222H514.417C522.458 222 529 215.458 529 207.416C529 199.375 522.458 192.833 514.416 192.833ZM514.416 217.833H481.083C477.637 217.833 474.833 215.029 474.833 211.583C474.833 208.137 477.637 205.333 481.083 205.333C482.233 205.333 483.167 204.4 483.167 203.25C483.167 195.208 489.708 188.666 497.75 188.666C502.958 188.666 507.812 191.537 510.408 196.158C510.842 196.929 511.7 197.337 512.592 197.187C513.188 197.083 513.792 197 514.417 197C520.158 197 524.833 201.675 524.833 207.416C524.833 213.158 520.158 217.833 514.416 217.833Z" fill="#4859ED"/>
<path d="M514.417 151.167H481.084C479.934 151.167 479 152.1 479 153.25C479 154.4 479.934 155.333 481.084 155.333H514.417C515.567 155.333 516.501 154.4 516.501 153.25C516.501 152.1 515.567 151.167 514.417 151.167Z" fill="#4859ED"/>
<path d="M514.417 159.5H481.084C479.934 159.5 479 160.433 479 161.583C479 162.733 479.934 163.667 481.084 163.667H514.417C515.567 163.667 516.501 162.733 516.501 161.583C516.501 160.433 515.567 159.5 514.417 159.5Z" fill="#4859ED"/>
<path d="M443.584 151.167C440.138 151.167 437.334 153.967 437.334 157.417C437.334 160.867 440.138 163.667 443.584 163.667C447.03 163.667 449.834 160.862 449.834 157.417C449.834 153.971 447.03 151.167 443.584 151.167ZM443.584 159.5C442.434 159.5 441.501 158.567 441.501 157.417C441.501 156.267 442.434 155.333 443.584 155.333C444.734 155.333 445.667 156.267 445.667 157.417C445.667 158.567 444.734 159.5 443.584 159.5Z" fill="#4859ED"/>
<path d="M437.334 182.416C437.334 185.862 440.138 188.666 443.584 188.666C447.03 188.666 449.834 185.862 449.834 182.416C449.834 178.971 447.03 176.166 443.584 176.166C440.138 176.166 437.334 178.966 437.334 182.416ZM445.667 182.416C445.667 183.566 444.734 184.5 443.584 184.5C442.434 184.5 441.501 183.566 441.501 182.416C441.501 181.266 442.434 180.333 443.584 180.333C444.734 180.333 445.667 181.266 445.667 182.416Z" fill="#4859ED"/>
<path opacity="0.4" d="M475.653 298.714C481.062 317.256 508.107 347.204 525.809 366.327C551.378 380.827 587.619 414.671 589.979 427.792" stroke="#4859ED" strokeOpacity="0.6" strokeWidth="4" strokeLinecap="round" strokeDasharray="9 9"/>
<g filter="url(#filter2_d)">
<circle cx="471.441" cy="283.751" r="7.59" fill="#4859ED"/>
</g>
<path opacity="0.8" d="M474.274 1546.33V1525.03H477.634V1543.36H489.064V1546.33H474.274ZM491.134 1541.74C491.134 1540.74 491.414 1539.87 491.974 1539.13C492.534 1538.37 493.314 1537.79 494.314 1537.39C495.334 1536.97 496.504 1536.76 497.824 1536.76C498.524 1536.76 499.234 1536.82 499.954 1536.94C500.694 1537.04 501.344 1537.19 501.904 1537.39V1536.4C501.904 1535.3 501.574 1534.44 500.914 1533.82C500.254 1533.2 499.304 1532.89 498.064 1532.89C497.204 1532.89 496.374 1533.04 495.574 1533.34C494.774 1533.64 493.944 1534.08 493.084 1534.66L491.974 1532.44C493.014 1531.76 494.054 1531.25 495.094 1530.91C496.154 1530.55 497.264 1530.37 498.424 1530.37C500.524 1530.37 502.174 1530.93 503.374 1532.05C504.594 1533.15 505.204 1534.72 505.204 1536.76V1542.61C505.204 1542.99 505.264 1543.26 505.384 1543.42C505.524 1543.58 505.754 1543.67 506.074 1543.69V1546.33C505.774 1546.39 505.504 1546.43 505.264 1546.45C505.024 1546.47 504.824 1546.48 504.664 1546.48C503.944 1546.48 503.404 1546.31 503.044 1545.97C502.704 1545.61 502.504 1545.21 502.444 1544.77L502.354 1543.87C501.674 1544.75 500.804 1545.43 499.744 1545.91C498.684 1546.39 497.614 1546.63 496.534 1546.63C495.494 1546.63 494.564 1546.42 493.744 1546C492.924 1545.56 492.284 1544.97 491.824 1544.23C491.364 1543.49 491.134 1542.66 491.134 1541.74ZM501.124 1542.7C501.644 1542.18 501.904 1541.69 501.904 1541.23V1539.43C500.724 1538.99 499.524 1538.77 498.304 1538.77C497.104 1538.77 496.124 1539.02 495.364 1539.52C494.624 1540 494.254 1540.65 494.254 1541.47C494.254 1542.15 494.524 1542.78 495.064 1543.36C495.624 1543.92 496.424 1544.2 497.464 1544.2C498.164 1544.2 498.844 1544.06 499.504 1543.78C500.164 1543.5 500.704 1543.14 501.124 1542.7ZM519.017 1546.63C517.757 1546.63 516.647 1546.33 515.687 1545.73C514.727 1545.13 513.967 1544.35 513.407 1543.39V1552.72H510.107V1530.64H513.017V1533.46C513.617 1532.52 514.397 1531.77 515.357 1531.21C516.317 1530.65 517.387 1530.37 518.567 1530.37C520.007 1530.37 521.277 1530.75 522.377 1531.51C523.497 1532.25 524.377 1533.24 525.017 1534.48C525.657 1535.7 525.977 1537.03 525.977 1538.47C525.977 1539.99 525.677 1541.37 525.077 1542.61C524.477 1543.83 523.657 1544.81 522.617 1545.55C521.577 1546.27 520.377 1546.63 519.017 1546.63ZM517.937 1543.81C518.877 1543.81 519.687 1543.56 520.367 1543.06C521.067 1542.54 521.607 1541.88 521.987 1541.08C522.387 1540.26 522.587 1539.39 522.587 1538.47C522.587 1537.51 522.367 1536.63 521.927 1535.83C521.507 1535.03 520.927 1534.39 520.187 1533.91C519.467 1533.43 518.637 1533.19 517.697 1533.19C517.137 1533.19 516.547 1533.33 515.927 1533.61C515.327 1533.89 514.797 1534.26 514.337 1534.72C513.877 1535.18 513.567 1535.7 513.407 1536.28V1540.39C513.807 1541.35 514.417 1542.16 515.237 1542.82C516.077 1543.48 516.977 1543.81 517.937 1543.81ZM538.341 1545.52C537.921 1545.72 537.341 1545.95 536.601 1546.21C535.861 1546.45 535.071 1546.57 534.231 1546.57C533.191 1546.57 532.291 1546.29 531.531 1545.73C530.791 1545.17 530.421 1544.26 530.421 1543V1533.19H528.351V1530.64H530.421V1525.48H533.721V1530.64H537.141V1533.19H533.721V1541.95C533.761 1542.51 533.931 1542.92 534.231 1543.18C534.551 1543.42 534.941 1543.54 535.401 1543.54C535.861 1543.54 536.301 1543.46 536.721 1543.3C537.141 1543.14 537.451 1543.01 537.651 1542.91L538.341 1545.52ZM548.371 1546.63C546.731 1546.63 545.301 1546.26 544.081 1545.52C542.881 1544.76 541.951 1543.77 541.291 1542.55C540.631 1541.31 540.301 1539.96 540.301 1538.5C540.301 1537.04 540.631 1535.7 541.291 1534.48C541.971 1533.24 542.911 1532.25 544.111 1531.51C545.331 1530.75 546.751 1530.37 548.371 1530.37C549.991 1530.37 551.401 1530.75 552.601 1531.51C553.821 1532.25 554.761 1533.24 555.421 1534.48C556.101 1535.7 556.441 1537.04 556.441 1538.5C556.441 1539.96 556.111 1541.31 555.451 1542.55C554.791 1543.77 553.851 1544.76 552.631 1545.52C551.431 1546.26 550.011 1546.63 548.371 1546.63ZM543.691 1538.53C543.691 1539.53 543.901 1540.43 544.321 1541.23C544.741 1542.03 545.301 1542.66 546.001 1543.12C546.701 1543.58 547.491 1543.81 548.371 1543.81C549.231 1543.81 550.011 1543.58 550.711 1543.12C551.431 1542.64 552.001 1542 552.421 1541.2C552.841 1540.4 553.051 1539.5 553.051 1538.5C553.051 1537.5 552.841 1536.6 552.421 1535.8C552.001 1535 551.431 1534.37 550.711 1533.91C550.011 1533.43 549.231 1533.19 548.371 1533.19C547.511 1533.19 546.721 1533.43 546.001 1533.91C545.301 1534.37 544.741 1535.01 544.321 1535.83C543.901 1536.63 543.691 1537.53 543.691 1538.53ZM569.178 1546.63C567.918 1546.63 566.808 1546.33 565.848 1545.73C564.888 1545.13 564.128 1544.35 563.568 1543.39V1552.72H560.268V1530.64H563.178V1533.46C563.778 1532.52 564.558 1531.77 565.518 1531.21C566.478 1530.65 567.548 1530.37 568.728 1530.37C570.168 1530.37 571.438 1530.75 572.538 1531.51C573.658 1532.25 574.538 1533.24 575.178 1534.48C575.818 1535.7 576.138 1537.03 576.138 1538.47C576.138 1539.99 575.838 1541.37 575.238 1542.61C574.638 1543.83 573.818 1544.81 572.778 1545.55C571.738 1546.27 570.538 1546.63 569.178 1546.63ZM568.098 1543.81C569.038 1543.81 569.848 1543.56 570.528 1543.06C571.228 1542.54 571.768 1541.88 572.148 1541.08C572.548 1540.26 572.748 1539.39 572.748 1538.47C572.748 1537.51 572.528 1536.63 572.088 1535.83C571.668 1535.03 571.088 1534.39 570.348 1533.91C569.628 1533.43 568.798 1533.19 567.858 1533.19C567.298 1533.19 566.708 1533.33 566.088 1533.61C565.488 1533.89 564.958 1534.26 564.498 1534.72C564.038 1535.18 563.728 1535.7 563.568 1536.28V1540.39C563.968 1541.35 564.578 1542.16 565.398 1542.82C566.238 1543.48 567.138 1543.81 568.098 1543.81Z" fill="#4859ED"/>
<path d="M558.189 1417.56H481.045C478.417 1417.57 476.287 1419.7 476.283 1422.32V1479.47C476.287 1482.1 478.417 1484.23 481.045 1484.23H558.189C560.817 1484.23 562.947 1482.1 562.951 1479.47V1422.32C562.947 1419.7 560.817 1417.57 558.189 1417.56ZM559.617 1479.47C559.616 1480.26 558.977 1480.89 558.189 1480.9H481.045C480.257 1480.89 479.619 1480.26 479.617 1479.47V1422.32C479.619 1421.54 480.257 1420.9 481.045 1420.9H558.189C558.977 1420.9 559.616 1421.54 559.617 1422.32V1479.47Z" fill="#4859ED"/>
<path d="M569.264 1486.54C568.949 1486.13 568.464 1485.9 567.951 1485.9H526.284C525.363 1485.9 524.617 1486.64 524.617 1487.56V1489.23H514.617V1487.56C514.617 1486.64 513.871 1485.9 512.95 1485.9H471.283C470.363 1485.9 469.617 1486.64 469.617 1487.56C469.617 1487.7 469.634 1487.83 469.667 1487.97L470.702 1492.11C471.259 1494.34 473.259 1495.9 475.553 1495.9H563.681C565.975 1495.9 567.976 1494.34 568.533 1492.11L569.568 1487.97C569.691 1487.47 569.58 1486.94 569.264 1486.54ZM475.553 1492.56C474.788 1492.56 474.121 1492.04 473.935 1491.3L473.417 1489.23H511.284V1490.9C511.284 1491.82 512.03 1492.56 512.95 1492.56H475.553ZM565.299 1491.3C565.114 1492.04 564.446 1492.56 563.681 1492.56H526.284C527.204 1492.56 527.95 1491.82 527.95 1490.9V1489.23H565.817L565.299 1491.3Z" fill="#4859ED"/>
<path opacity="0.4" d="M653 1214C647.591 1232.54 579.525 1291.49 561.823 1310.62C536.253 1325.12 500.013 1358.96 497.653 1372.08" stroke="#4859ED" strokeWidth="4" strokeLinecap="round" strokeDasharray="9 9"/>
<g filter="url(#filter3_d)">
<circle cx="496.442" cy="1386.31" r="7.59" fill="#4859ED"/>
</g>
<path opacity="0.8" d="M808.523 1551.33V1530.03H817.463C818.423 1530.03 819.303 1530.23 820.103 1530.63C820.923 1531.03 821.623 1531.56 822.203 1532.22C822.803 1532.88 823.263 1533.62 823.583 1534.44C823.903 1535.26 824.063 1536.1 824.063 1536.96C824.063 1538.16 823.793 1539.29 823.253 1540.35C822.713 1541.41 821.963 1542.27 821.003 1542.93C820.043 1543.59 818.923 1543.92 817.643 1543.92H811.883V1551.33H808.523ZM811.883 1540.95H817.433C818.373 1540.95 819.143 1540.57 819.743 1539.81C820.343 1539.05 820.643 1538.1 820.643 1536.96C820.643 1536.18 820.483 1535.5 820.163 1534.92C819.843 1534.32 819.423 1533.85 818.903 1533.51C818.403 1533.17 817.853 1533 817.253 1533H811.883V1540.95ZM834.451 1551.63C832.811 1551.63 831.381 1551.26 830.161 1550.52C828.961 1549.76 828.031 1548.77 827.371 1547.55C826.711 1546.31 826.381 1544.96 826.381 1543.5C826.381 1542.04 826.711 1540.7 827.371 1539.48C828.051 1538.24 828.991 1537.25 830.191 1536.51C831.411 1535.75 832.831 1535.37 834.451 1535.37C836.071 1535.37 837.481 1535.75 838.681 1536.51C839.901 1537.25 840.841 1538.24 841.501 1539.48C842.181 1540.7 842.521 1542.04 842.521 1543.5C842.521 1544.96 842.191 1546.31 841.531 1547.55C840.871 1548.77 839.931 1549.76 838.711 1550.52C837.511 1551.26 836.091 1551.63 834.451 1551.63ZM829.771 1543.53C829.771 1544.53 829.981 1545.43 830.401 1546.23C830.821 1547.03 831.381 1547.66 832.081 1548.12C832.781 1548.58 833.571 1548.81 834.451 1548.81C835.311 1548.81 836.091 1548.58 836.791 1548.12C837.511 1547.64 838.081 1547 838.501 1546.2C838.921 1545.4 839.131 1544.5 839.131 1543.5C839.131 1542.5 838.921 1541.6 838.501 1540.8C838.081 1540 837.511 1539.37 836.791 1538.91C836.091 1538.43 835.311 1538.19 834.451 1538.19C833.591 1538.19 832.801 1538.43 832.081 1538.91C831.381 1539.37 830.821 1540.01 830.401 1540.83C829.981 1541.63 829.771 1542.53 829.771 1543.53ZM851.928 1551.63C850.608 1551.63 849.358 1551.41 848.178 1550.97C846.998 1550.53 845.988 1549.89 845.148 1549.05L846.378 1546.83C847.278 1547.63 848.178 1548.21 849.078 1548.57C849.978 1548.93 850.888 1549.11 851.808 1549.11C852.728 1549.11 853.478 1548.94 854.058 1548.6C854.638 1548.24 854.928 1547.72 854.928 1547.04C854.928 1546.56 854.778 1546.19 854.478 1545.93C854.178 1545.67 853.738 1545.46 853.158 1545.3C852.598 1545.14 851.918 1544.94 851.118 1544.7C849.998 1544.36 849.058 1544.01 848.298 1543.65C847.538 1543.27 846.968 1542.81 846.588 1542.27C846.208 1541.73 846.018 1541.04 846.018 1540.2C846.018 1538.68 846.588 1537.5 847.728 1536.66C848.868 1535.8 850.358 1535.37 852.198 1535.37C853.338 1535.37 854.388 1535.55 855.348 1535.91C856.328 1536.25 857.188 1536.79 857.928 1537.53L856.518 1539.72C855.158 1538.48 853.658 1537.86 852.018 1537.86C851.298 1537.86 850.628 1538 850.008 1538.28C849.408 1538.56 849.108 1539.08 849.108 1539.84C849.108 1540.48 849.378 1540.94 849.918 1541.22C850.458 1541.5 851.258 1541.8 852.318 1542.12C853.518 1542.48 854.548 1542.84 855.408 1543.2C856.288 1543.54 856.958 1543.99 857.418 1544.55C857.898 1545.09 858.138 1545.84 858.138 1546.8C858.138 1548.32 857.568 1549.51 856.428 1550.37C855.288 1551.21 853.788 1551.63 851.928 1551.63ZM870.685 1550.52C870.265 1550.72 869.685 1550.95 868.945 1551.21C868.205 1551.45 867.415 1551.57 866.575 1551.57C865.535 1551.57 864.635 1551.29 863.875 1550.73C863.135 1550.17 862.765 1549.26 862.765 1548V1538.19H860.695V1535.64H862.765V1530.48H866.065V1535.64H869.485V1538.19H866.065V1546.95C866.105 1547.51 866.275 1547.92 866.575 1548.18C866.895 1548.42 867.285 1548.54 867.745 1548.54C868.205 1548.54 868.645 1548.46 869.065 1548.3C869.485 1548.14 869.795 1548.01 869.995 1547.91L870.685 1550.52ZM879.905 1551.48C878.485 1551.48 877.235 1551.11 876.155 1550.37C875.095 1549.63 874.255 1548.66 873.635 1547.46C873.035 1546.24 872.735 1544.92 872.735 1543.5C872.735 1542.02 873.045 1540.66 873.665 1539.42C874.285 1538.18 875.135 1537.2 876.215 1536.48C877.315 1535.74 878.585 1535.37 880.025 1535.37C881.285 1535.37 882.385 1535.67 883.325 1536.27C884.285 1536.87 885.075 1537.65 885.695 1538.61V1535.64H888.605V1550.88C888.605 1552.4 888.235 1553.69 887.495 1554.75C886.775 1555.81 885.785 1556.62 884.525 1557.18C883.265 1557.74 881.845 1558.02 880.265 1558.02C878.525 1558.02 877.075 1557.72 875.915 1557.12C874.775 1556.52 873.815 1555.7 873.035 1554.66L874.895 1552.92C875.495 1553.76 876.265 1554.4 877.205 1554.84C878.165 1555.28 879.185 1555.5 880.265 1555.5C881.165 1555.5 881.995 1555.33 882.755 1554.99C883.535 1554.67 884.155 1554.17 884.615 1553.49C885.075 1552.81 885.305 1551.94 885.305 1550.88V1548.48C884.745 1549.42 883.975 1550.16 882.995 1550.7C882.015 1551.22 880.985 1551.48 879.905 1551.48ZM880.985 1548.81C881.645 1548.81 882.275 1548.67 882.875 1548.39C883.475 1548.09 883.985 1547.7 884.405 1547.22C884.845 1546.74 885.145 1546.23 885.305 1545.69V1541.58C884.905 1540.58 884.275 1539.77 883.415 1539.15C882.575 1538.51 881.685 1538.19 880.745 1538.19C879.785 1538.19 878.955 1538.45 878.255 1538.97C877.575 1539.49 877.045 1540.17 876.665 1541.01C876.285 1541.83 876.095 1542.69 876.095 1543.59C876.095 1544.55 876.305 1545.43 876.725 1546.23C877.165 1547.01 877.755 1547.64 878.495 1548.12C879.235 1548.58 880.065 1548.81 880.985 1548.81ZM902.282 1538.49C901.002 1538.53 899.862 1538.83 898.862 1539.39C897.882 1539.93 897.182 1540.71 896.762 1541.73V1551.33H893.462V1535.64H896.522V1539.15C897.062 1538.07 897.772 1537.21 898.652 1536.57C899.532 1535.91 900.462 1535.55 901.442 1535.49C901.622 1535.49 901.782 1535.49 901.922 1535.49C902.062 1535.49 902.182 1535.5 902.282 1535.52V1538.49ZM912.429 1551.63C910.809 1551.63 909.389 1551.26 908.169 1550.52C906.949 1549.78 905.999 1548.8 905.319 1547.58C904.639 1546.34 904.299 1544.99 904.299 1543.53C904.299 1542.05 904.639 1540.69 905.319 1539.45C905.999 1538.21 906.949 1537.22 908.169 1536.48C909.389 1535.74 910.819 1535.37 912.459 1535.37C914.099 1535.37 915.519 1535.75 916.719 1536.51C917.919 1537.25 918.839 1538.23 919.479 1539.45C920.139 1540.67 920.469 1541.98 920.469 1543.38C920.469 1543.88 920.439 1544.28 920.379 1544.58H907.809C907.869 1545.5 908.119 1546.31 908.559 1547.01C909.019 1547.69 909.589 1548.23 910.269 1548.63C910.969 1549.01 911.729 1549.2 912.549 1549.2C913.429 1549.2 914.259 1548.98 915.039 1548.54C915.819 1548.1 916.359 1547.52 916.659 1546.8L919.479 1547.61C918.939 1548.79 918.039 1549.76 916.779 1550.52C915.539 1551.26 914.089 1551.63 912.429 1551.63ZM907.719 1542.39H917.199C917.119 1541.49 916.859 1540.7 916.419 1540.02C915.979 1539.32 915.409 1538.78 914.709 1538.4C914.029 1538 913.269 1537.8 912.429 1537.8C911.609 1537.8 910.849 1538 910.149 1538.4C909.469 1538.78 908.909 1539.32 908.469 1540.02C908.029 1540.7 907.779 1541.49 907.719 1542.39ZM929.641 1551.63C928.321 1551.63 927.071 1551.41 925.891 1550.97C924.711 1550.53 923.701 1549.89 922.861 1549.05L924.091 1546.83C924.991 1547.63 925.891 1548.21 926.791 1548.57C927.691 1548.93 928.601 1549.11 929.521 1549.11C930.441 1549.11 931.191 1548.94 931.771 1548.6C932.351 1548.24 932.641 1547.72 932.641 1547.04C932.641 1546.56 932.491 1546.19 932.191 1545.93C931.891 1545.67 931.451 1545.46 930.871 1545.3C930.311 1545.14 929.631 1544.94 928.831 1544.7C927.711 1544.36 926.771 1544.01 926.011 1543.65C925.251 1543.27 924.681 1542.81 924.301 1542.27C923.921 1541.73 923.731 1541.04 923.731 1540.2C923.731 1538.68 924.301 1537.5 925.441 1536.66C926.581 1535.8 928.071 1535.37 929.911 1535.37C931.051 1535.37 932.101 1535.55 933.061 1535.91C934.041 1536.25 934.901 1536.79 935.641 1537.53L934.231 1539.72C932.871 1538.48 931.371 1537.86 929.731 1537.86C929.011 1537.86 928.341 1538 927.721 1538.28C927.121 1538.56 926.821 1539.08 926.821 1539.84C926.821 1540.48 927.091 1540.94 927.631 1541.22C928.171 1541.5 928.971 1541.8 930.031 1542.12C931.231 1542.48 932.261 1542.84 933.121 1543.2C934.001 1543.54 934.671 1543.99 935.131 1544.55C935.611 1545.09 935.851 1545.84 935.851 1546.8C935.851 1548.32 935.281 1549.51 934.141 1550.37C933.001 1551.21 931.501 1551.63 929.641 1551.63ZM952.718 1535.04C952.458 1534.74 952.028 1534.43 951.428 1534.11C950.848 1533.77 950.168 1533.48 949.388 1533.24C948.608 1533 947.798 1532.88 946.958 1532.88C945.538 1532.88 944.488 1533.14 943.808 1533.66C943.148 1534.18 942.818 1534.9 942.818 1535.82C942.818 1536.5 943.008 1537.04 943.388 1537.44C943.768 1537.82 944.348 1538.15 945.128 1538.43C945.908 1538.69 946.888 1538.96 948.068 1539.24C949.508 1539.58 950.748 1539.99 951.788 1540.47C952.848 1540.93 953.658 1541.55 954.218 1542.33C954.798 1543.11 955.088 1544.14 955.088 1545.42C955.088 1546.88 954.738 1548.06 954.038 1548.96C953.338 1549.86 952.388 1550.52 951.188 1550.94C950.008 1551.34 948.708 1551.54 947.288 1551.54C945.668 1551.54 944.098 1551.29 942.578 1550.79C941.058 1550.29 939.698 1549.58 938.498 1548.66L940.028 1545.78C940.368 1546.12 940.908 1546.51 941.648 1546.95C942.388 1547.37 943.248 1547.74 944.228 1548.06C945.228 1548.36 946.268 1548.51 947.348 1548.51C948.668 1548.51 949.688 1548.28 950.408 1547.82C951.128 1547.34 951.488 1546.66 951.488 1545.78C951.488 1545.06 951.248 1544.49 950.768 1544.07C950.308 1543.63 949.638 1543.27 948.758 1542.99C947.898 1542.69 946.858 1542.38 945.638 1542.06C944.238 1541.7 943.068 1541.29 942.128 1540.83C941.188 1540.37 940.478 1539.79 939.998 1539.09C939.538 1538.39 939.308 1537.48 939.308 1536.36C939.308 1534.96 939.648 1533.78 940.328 1532.82C941.008 1531.84 941.928 1531.11 943.088 1530.63C944.268 1530.13 945.588 1529.88 947.048 1529.88C948.488 1529.88 949.818 1530.11 951.038 1530.57C952.258 1531.03 953.328 1531.6 954.248 1532.28L952.718 1535.04ZM968.207 1551.48C966.687 1551.48 965.297 1551.18 964.037 1550.58C962.797 1549.96 961.727 1549.14 960.827 1548.12C959.927 1547.1 959.227 1545.95 958.727 1544.67C958.247 1543.37 958.007 1542.04 958.007 1540.68C958.007 1539.26 958.267 1537.91 958.787 1536.63C959.307 1535.33 960.027 1534.18 960.947 1533.18C961.867 1532.16 962.947 1531.36 964.187 1530.78C965.447 1530.18 966.807 1529.88 968.267 1529.88C969.787 1529.88 971.167 1530.19 972.407 1530.81C973.667 1531.43 974.737 1532.26 975.617 1533.3C976.517 1534.34 977.207 1535.5 977.687 1536.78C978.187 1538.06 978.437 1539.37 978.437 1540.71C978.437 1542.11 978.187 1543.45 977.687 1544.73C977.187 1546.01 976.487 1547.15 975.587 1548.15L978.377 1551.33H975.137L973.757 1549.77C972.977 1550.31 972.117 1550.73 971.177 1551.03C970.237 1551.33 969.247 1551.48 968.207 1551.48ZM968.237 1548.45C968.897 1548.45 969.517 1548.36 970.097 1548.18C970.677 1548 971.217 1547.75 971.717 1547.43L968.657 1543.92H971.897L973.457 1545.69C973.957 1544.99 974.337 1544.2 974.597 1543.32C974.857 1542.44 974.987 1541.56 974.987 1540.68C974.987 1539.34 974.707 1538.08 974.147 1536.9C973.607 1535.7 972.827 1534.74 971.807 1534.02C970.787 1533.28 969.597 1532.91 968.237 1532.91C967.157 1532.91 966.197 1533.13 965.357 1533.57C964.517 1534.01 963.807 1534.61 963.227 1535.37C962.647 1536.11 962.197 1536.94 961.877 1537.86C961.577 1538.78 961.427 1539.72 961.427 1540.68C961.427 1542.02 961.707 1543.29 962.267 1544.49C962.827 1545.67 963.607 1546.63 964.607 1547.37C965.627 1548.09 966.837 1548.45 968.237 1548.45ZM982.757 1551.33V1530.03H986.117V1548.36H997.547V1551.33H982.757Z" fill="#4859ED"/>
<path d="M889.33 1489.85C886.976 1490.79 884.796 1491.93 882.475 1492.52C879.34 1493.31 876.162 1492.87 873.138 1491.69C872.391 1491.4 871.672 1490.95 871.058 1490.43C869.483 1489.09 869.585 1487.1 871.401 1486.14C872.691 1485.45 874.16 1485.03 875.6 1484.73C878.451 1484.15 880.926 1483.11 882.248 1480.3C880.41 1479.73 878.576 1479.11 876.705 1478.64C876.36 1478.55 875.76 1478.98 875.45 1479.33C872.721 1482.37 870.048 1485.47 867.322 1488.52C865.872 1490.14 864.164 1491.32 861.86 1491.35C859.444 1491.37 857.657 1490.13 856.112 1488.46C853.352 1485.49 851.561 1481.91 850.041 1478.21C846.228 1468.93 843.743 1459.27 841.907 1449.42C840.91 1444.08 840.619 1438.75 841.625 1433.37C843.386 1423.95 850.39 1417.88 859.97 1417.42C866.452 1417.1 872.716 1418.11 878.81 1420.26C879.741 1420.59 880.467 1420.55 881.359 1420.04C886.842 1416.87 892.768 1416.56 898.838 1417.6C900.286 1417.85 901.613 1417.88 903.065 1417.5C910.899 1415.39 918.728 1415.15 926.458 1418.02C930.975 1419.69 934.723 1422.47 937.852 1426.13C939.458 1428 940.198 1430.18 940.357 1432.59C940.877 1440.43 938.89 1447.85 936.432 1455.17C933.88 1462.77 930.312 1469.9 926.132 1476.72C925.887 1477.12 925.662 1477.53 925.372 1478.03C927.694 1479.13 930.027 1479.08 932.37 1478.8C934.134 1478.59 935.882 1478.24 937.647 1478.03C938.811 1477.9 940.053 1477.89 940.701 1479.12C941.387 1480.42 940.796 1481.58 939.906 1482.53C936.887 1485.74 933.082 1487.58 928.773 1488.07C925.891 1488.4 922.941 1488.13 919.824 1488.13C919.531 1490.47 919.269 1492.74 918.96 1495C918.374 1499.29 917.843 1503.58 917.141 1507.85C916.032 1514.58 911.647 1517.95 905.245 1519.3C897.195 1521 890.981 1516.71 890.204 1508.45C889.663 1502.71 889.602 1496.92 889.333 1491.16C889.309 1490.66 889.33 1490.15 889.33 1489.85ZM885.66 1477.51C886.519 1477.64 887.077 1477.71 887.628 1477.81C890.48 1478.33 892.342 1480.98 892.408 1484.33C892.561 1492.07 892.559 1499.83 893.062 1507.54C893.422 1513.07 896.762 1518.15 904.342 1516.47C910.206 1515.18 913.248 1513.29 914.201 1507.31C915.373 1499.96 916.265 1492.56 916.996 1485.15C917.324 1481.83 917.9 1478.96 921.318 1477.54C921.381 1477.52 921.399 1477.38 921.44 1477.29C917.743 1472.5 915.3 1466.98 912.655 1461.6C911.332 1458.91 910.362 1455.99 909.672 1453.06C908.045 1446.18 911.355 1441.92 918.426 1441.49C919.616 1441.41 920.815 1441.48 922.133 1441.48C921.987 1440.95 921.93 1440.57 921.781 1440.23C916.501 1428.33 907.817 1420.97 894.462 1420.06C887.78 1419.61 882.014 1421.65 877.816 1427.15C875.172 1430.61 873.61 1434.58 872.76 1438.82C872.39 1440.67 872.167 1442.55 871.885 1444.37C874.657 1443.57 877.19 1442.63 879.805 1442.13C884.631 1441.2 888.492 1443.47 889.574 1447.82C891.583 1455.9 891.816 1463.88 887.898 1471.59C886.977 1473.4 886.443 1475.41 885.66 1477.51ZM877.364 1423.03C877.081 1422.83 876.976 1422.72 876.848 1422.68C871.056 1420.95 865.215 1419.81 859.103 1420.48C851.517 1421.31 846.477 1425.66 844.703 1433.11C843.474 1438.27 843.763 1443.4 844.727 1448.56C846.638 1458.78 849.086 1468.86 853.386 1478.36C854.734 1481.34 856.569 1484.19 858.627 1486.74C860.616 1489.2 862.753 1489.08 864.902 1486.75C867.899 1483.5 870.736 1480.11 873.635 1476.79C873.53 1476.6 873.483 1476.46 873.386 1476.36C869.113 1472.07 867.898 1466.93 868.644 1461C869.091 1457.45 868.793 1453.81 868.882 1450.21C868.952 1447.43 868.92 1444.63 869.254 1441.87C870.102 1434.86 872.44 1428.43 877.364 1423.03ZM923.24 1474.81C923.347 1474.86 923.454 1474.91 923.561 1474.95C923.913 1474.47 924.299 1474.01 924.61 1473.5C928.194 1467.6 931.146 1461.41 933.403 1454.89C935.596 1448.56 937.306 1442.14 937.565 1435.38C937.722 1431.29 936.271 1428.18 933.225 1425.51C928.084 1421.01 922.043 1419.04 915.368 1418.86C912.575 1418.79 909.77 1419.21 906.682 1419.43C907.069 1419.93 907.133 1420.07 907.243 1420.14C907.646 1420.4 908.056 1420.65 908.478 1420.88C915.632 1424.79 920.591 1430.68 924.066 1437.96C925.46 1440.87 926.002 1443.89 925.411 1447.06C924.505 1451.93 924.532 1456.78 925.193 1461.69C925.729 1465.68 925.53 1469.67 923.583 1473.38C923.362 1473.8 923.35 1474.33 923.24 1474.81ZM888.124 1457.08C887.832 1455.24 887.444 1452.09 886.808 1448.99C886.202 1446.04 884.294 1444.77 881.254 1444.93C878.202 1445.1 875.459 1446.17 872.84 1447.68C872.071 1448.13 871.837 1448.65 871.829 1449.53C871.79 1453.61 871.649 1457.7 871.58 1461.78C871.549 1463.64 871.359 1465.55 871.657 1467.36C872.471 1472.33 877.04 1476.63 881.509 1476.99C882.454 1477.06 882.854 1476.78 883.164 1475.89C883.955 1473.62 884.772 1471.36 885.759 1469.17C887.315 1465.74 888.013 1462.14 888.124 1457.08ZM922.764 1444.55C920.644 1444.55 918.809 1444.36 917.026 1444.59C913.709 1445.01 912.229 1446.83 912.304 1450.17C912.33 1451.36 912.521 1452.57 912.816 1453.72C914.435 1460.02 917.928 1465.47 920.953 1471.13C920.984 1471.18 921.116 1471.19 921.265 1471.24C922.572 1468.5 922.623 1465.6 922.367 1462.66C922.026 1458.75 921.25 1454.86 921.93 1450.9C922.278 1448.88 922.47 1446.83 922.764 1444.55ZM873.653 1488.27C875.774 1489.74 878.069 1490.12 880.443 1489.9C883.905 1489.59 886.793 1488.13 888.887 1485.29C889.809 1484.04 889.436 1482.18 888.143 1481.19C886.999 1480.31 886.263 1480.46 884.97 1481.88C884.615 1482.27 884.258 1482.67 883.969 1483.11C882.389 1485.5 880.129 1486.76 877.357 1487.29C876.105 1487.52 874.886 1487.93 873.653 1488.27ZM936.606 1481.65C936.522 1481.52 936.438 1481.39 936.355 1481.27C935.312 1481.4 934.272 1481.56 933.226 1481.65C930.256 1481.91 927.287 1482.15 924.447 1480.86C922.105 1479.8 920.283 1480.96 920.084 1483.53C919.998 1484.65 920.311 1485.16 921.479 1485.34C925.533 1485.96 929.42 1485.39 933.142 1483.78C934.373 1483.24 935.456 1482.37 936.606 1481.65Z" fill="#4859ED"/>
<path d="M881.683 1446.6C882.724 1446.85 883.471 1446.9 884.09 1447.21C884.584 1447.46 885.234 1448.01 885.247 1448.44C885.261 1448.91 884.695 1449.73 884.254 1449.83C883.301 1450.04 882.148 1450.17 881.302 1449.81C880.634 1449.53 880.303 1448.45 879.822 1447.73C880.499 1447.32 881.175 1446.91 881.683 1446.6Z" fill="#4859ED"/>
<path d="M919.698 1446.46C919.102 1448.81 916.907 1449.73 915.323 1448.46C914.437 1447.75 914.49 1446.98 915.509 1446.48C916.866 1445.82 918.245 1445.84 919.698 1446.46Z" fill="#4859ED"/>
<path opacity="0.4" d="M822.931 1372.08C817.522 1353.54 790.477 1323.59 772.775 1304.47C747.205 1289.97 657.86 1229.12 655.5 1216" stroke="#4859ED" strokeWidth="4" strokeLinecap="round" strokeDasharray="9 9"/>
<g filter="url(#filter4_d)">
<circle cx="825.883" cy="1386.31" r="7.59" fill="#4859ED"/>
</g>
<g filter="url(#filter5_d)">
<rect x="452.5" y="1072.5" width="561" height="524" rx="17.5" stroke="#4859ED" strokeOpacity="0.6" strokeWidth="5"/>
</g>
<path opacity="0.8" d="M1244.31 471V449.7H1258.5V452.67H1247.67V459.03H1256.73V461.82H1247.67V471H1244.31ZM1262.17 452.73V449.1H1265.47V452.73H1262.17ZM1262.17 471V455.31H1265.47V471H1262.17ZM1270.36 449.1H1273.66V466.47C1273.66 467.27 1273.78 467.78 1274.02 468C1274.26 468.22 1274.56 468.33 1274.92 468.33C1275.32 468.33 1275.7 468.29 1276.06 468.21C1276.42 468.13 1276.72 468.03 1276.96 467.91L1277.44 470.52C1276.96 470.72 1276.39 470.89 1275.73 471.03C1275.07 471.17 1274.48 471.24 1273.96 471.24C1272.84 471.24 1271.96 470.93 1271.32 470.31C1270.68 469.67 1270.36 468.79 1270.36 467.67V449.1ZM1287.37 471.3C1285.75 471.3 1284.33 470.93 1283.11 470.19C1281.89 469.45 1280.94 468.47 1280.26 467.25C1279.58 466.01 1279.24 464.66 1279.24 463.2C1279.24 461.72 1279.58 460.36 1280.26 459.12C1280.94 457.88 1281.89 456.89 1283.11 456.15C1284.33 455.41 1285.76 455.04 1287.4 455.04C1289.04 455.04 1290.46 455.42 1291.66 456.18C1292.86 456.92 1293.78 457.9 1294.42 459.12C1295.08 460.34 1295.41 461.65 1295.41 463.05C1295.41 463.55 1295.38 463.95 1295.32 464.25H1282.75C1282.81 465.17 1283.06 465.98 1283.5 466.68C1283.96 467.36 1284.53 467.9 1285.21 468.3C1285.91 468.68 1286.67 468.87 1287.49 468.87C1288.37 468.87 1289.2 468.65 1289.98 468.21C1290.76 467.77 1291.3 467.19 1291.6 466.47L1294.42 467.28C1293.88 468.46 1292.98 469.43 1291.72 470.19C1290.48 470.93 1289.03 471.3 1287.37 471.3ZM1282.66 462.06H1292.14C1292.06 461.16 1291.8 460.37 1291.36 459.69C1290.92 458.99 1290.35 458.45 1289.65 458.07C1288.97 457.67 1288.21 457.47 1287.37 457.47C1286.55 457.47 1285.79 457.67 1285.09 458.07C1284.41 458.45 1283.85 458.99 1283.41 459.69C1282.97 460.37 1282.72 461.16 1282.66 462.06ZM1320.33 454.71C1320.07 454.41 1319.64 454.1 1319.04 453.78C1318.46 453.44 1317.78 453.15 1317 452.91C1316.22 452.67 1315.41 452.55 1314.57 452.55C1313.15 452.55 1312.1 452.81 1311.42 453.33C1310.76 453.85 1310.43 454.57 1310.43 455.49C1310.43 456.17 1310.62 456.71 1311 457.11C1311.38 457.49 1311.96 457.82 1312.74 458.1C1313.52 458.36 1314.5 458.63 1315.68 458.91C1317.12 459.25 1318.36 459.66 1319.4 460.14C1320.46 460.6 1321.27 461.22 1321.83 462C1322.41 462.78 1322.7 463.81 1322.7 465.09C1322.7 466.55 1322.35 467.73 1321.65 468.63C1320.95 469.53 1320 470.19 1318.8 470.61C1317.62 471.01 1316.32 471.21 1314.9 471.21C1313.28 471.21 1311.71 470.96 1310.19 470.46C1308.67 469.96 1307.31 469.25 1306.11 468.33L1307.64 465.45C1307.98 465.79 1308.52 466.18 1309.26 466.62C1310 467.04 1310.86 467.41 1311.84 467.73C1312.84 468.03 1313.88 468.18 1314.96 468.18C1316.28 468.18 1317.3 467.95 1318.02 467.49C1318.74 467.01 1319.1 466.33 1319.1 465.45C1319.1 464.73 1318.86 464.16 1318.38 463.74C1317.92 463.3 1317.25 462.94 1316.37 462.66C1315.51 462.36 1314.47 462.05 1313.25 461.73C1311.85 461.37 1310.68 460.96 1309.74 460.5C1308.8 460.04 1308.09 459.46 1307.61 458.76C1307.15 458.06 1306.92 457.15 1306.92 456.03C1306.92 454.63 1307.26 453.45 1307.94 452.49C1308.62 451.51 1309.54 450.78 1310.7 450.3C1311.88 449.8 1313.2 449.55 1314.66 449.55C1316.1 449.55 1317.43 449.78 1318.65 450.24C1319.87 450.7 1320.94 451.27 1321.86 451.95L1320.33 454.71ZM1333.66 471.3C1332.04 471.3 1330.62 470.93 1329.4 470.19C1328.18 469.45 1327.23 468.47 1326.55 467.25C1325.87 466.01 1325.53 464.66 1325.53 463.2C1325.53 461.72 1325.87 460.36 1326.55 459.12C1327.23 457.88 1328.18 456.89 1329.4 456.15C1330.62 455.41 1332.05 455.04 1333.69 455.04C1335.33 455.04 1336.75 455.42 1337.95 456.18C1339.15 456.92 1340.07 457.9 1340.71 459.12C1341.37 460.34 1341.7 461.65 1341.7 463.05C1341.7 463.55 1341.67 463.95 1341.61 464.25H1329.04C1329.1 465.17 1329.35 465.98 1329.79 466.68C1330.25 467.36 1330.82 467.9 1331.5 468.3C1332.2 468.68 1332.96 468.87 1333.78 468.87C1334.66 468.87 1335.49 468.65 1336.27 468.21C1337.05 467.77 1337.59 467.19 1337.89 466.47L1340.71 467.28C1340.17 468.46 1339.27 469.43 1338.01 470.19C1336.77 470.93 1335.32 471.3 1333.66 471.3ZM1328.95 462.06H1338.43C1338.35 461.16 1338.09 460.37 1337.65 459.69C1337.21 458.99 1336.64 458.45 1335.94 458.07C1335.26 457.67 1334.5 457.47 1333.66 457.47C1332.84 457.47 1332.08 457.67 1331.38 458.07C1330.7 458.45 1330.14 458.99 1329.7 459.69C1329.26 460.37 1329.01 461.16 1328.95 462.06ZM1354.11 458.16C1352.83 458.2 1351.69 458.5 1350.69 459.06C1349.71 459.6 1349.01 460.38 1348.59 461.4V471H1345.29V455.31H1348.35V458.82C1348.89 457.74 1349.6 456.88 1350.48 456.24C1351.36 455.58 1352.29 455.22 1353.27 455.16C1353.45 455.16 1353.61 455.16 1353.75 455.16C1353.89 455.16 1354.01 455.17 1354.11 455.19V458.16ZM1361.79 471L1355.82 455.31H1359.24L1363.71 467.94L1368.18 455.31H1371.36L1365.39 471H1361.79ZM1381.21 471.3C1379.59 471.3 1378.17 470.93 1376.95 470.19C1375.73 469.45 1374.78 468.47 1374.1 467.25C1373.42 466.01 1373.08 464.66 1373.08 463.2C1373.08 461.72 1373.42 460.36 1374.1 459.12C1374.78 457.88 1375.73 456.89 1376.95 456.15C1378.17 455.41 1379.6 455.04 1381.24 455.04C1382.88 455.04 1384.3 455.42 1385.5 456.18C1386.7 456.92 1387.62 457.9 1388.26 459.12C1388.92 460.34 1389.25 461.65 1389.25 463.05C1389.25 463.55 1389.22 463.95 1389.16 464.25H1376.59C1376.65 465.17 1376.9 465.98 1377.34 466.68C1377.8 467.36 1378.37 467.9 1379.05 468.3C1379.75 468.68 1380.51 468.87 1381.33 468.87C1382.21 468.87 1383.04 468.65 1383.82 468.21C1384.6 467.77 1385.14 467.19 1385.44 466.47L1388.26 467.28C1387.72 468.46 1386.82 469.43 1385.56 470.19C1384.32 470.93 1382.87 471.3 1381.21 471.3ZM1376.5 462.06H1385.98C1385.9 461.16 1385.64 460.37 1385.2 459.69C1384.76 458.99 1384.19 458.45 1383.49 458.07C1382.81 457.67 1382.05 457.47 1381.21 457.47C1380.39 457.47 1379.63 457.67 1378.93 458.07C1378.25 458.45 1377.69 458.99 1377.25 459.69C1376.81 460.37 1376.56 461.16 1376.5 462.06ZM1401.67 458.16C1400.39 458.2 1399.25 458.5 1398.25 459.06C1397.27 459.6 1396.57 460.38 1396.15 461.4V471H1392.85V455.31H1395.91V458.82C1396.45 457.74 1397.16 456.88 1398.04 456.24C1398.92 455.58 1399.85 455.22 1400.83 455.16C1401.01 455.16 1401.17 455.16 1401.31 455.16C1401.45 455.16 1401.57 455.17 1401.67 455.19V458.16Z" fill="#4859ED"/>
<path d="M1327.08 388.333H1360.42C1361.57 388.333 1362.5 387.4 1362.5 386.25C1362.5 385.1 1361.57 384.166 1360.42 384.166H1327.08C1325.93 384.166 1325 385.1 1325 386.25C1325 387.4 1325.93 388.333 1327.08 388.333Z" fill="#4859ED"/>
<path d="M1375 369.583V361.25C1375 359.238 1374.4 357.375 1373.41 355.779C1373.38 355.729 1373.38 355.671 1373.35 355.625L1360.47 334.917C1358.55 331.842 1355.25 330 1351.62 330H1298.38C1294.75 330 1291.45 331.842 1289.54 334.917L1276.65 355.625C1276.63 355.667 1276.63 355.712 1276.6 355.758C1275.6 357.354 1275 359.229 1275 361.25V369.583C1275 373 1276.68 376.017 1279.23 377.917C1276.68 379.817 1275 382.829 1275 386.25V394.583C1275 398 1276.68 401.017 1279.23 402.917C1276.68 404.817 1275 407.829 1275 411.25V419.583C1275 425.325 1279.68 430 1285.42 430H1312.73C1313.89 430 1314.82 429.067 1314.82 427.917C1314.82 426.767 1313.88 425.833 1312.73 425.833H1285.42C1281.97 425.833 1279.17 423.029 1279.17 419.583V411.25C1279.17 407.8 1281.97 405 1285.42 405H1320.27C1321.42 405 1322.35 404.067 1322.35 402.917C1322.35 401.767 1321.42 400.833 1320.27 400.833H1285.42C1281.97 400.833 1279.17 398.029 1279.17 394.583V386.25C1279.17 382.8 1281.97 380 1285.42 380H1364.58C1368.03 380 1370.83 382.804 1370.83 386.25V394.583C1370.83 395.5 1370.61 396.421 1370.17 397.308C1369.67 398.342 1370.1 399.587 1371.13 400.096C1372.17 400.604 1373.41 400.179 1373.92 399.142C1374.64 397.675 1375 396.146 1375 394.583V386.25C1375 382.833 1373.32 379.817 1370.77 377.917C1373.32 376.012 1375 373 1375 369.583ZM1293.07 337.117C1294.22 335.271 1296.2 334.167 1298.38 334.167H1351.62C1353.79 334.167 1355.77 335.271 1356.92 337.117L1365.52 350.929C1365.21 350.896 1364.9 350.833 1364.58 350.833H1285.42C1285.1 350.833 1284.79 350.896 1284.48 350.925L1293.07 337.117ZM1370.83 369.583C1370.83 373.029 1368.03 375.833 1364.58 375.833H1285.42C1281.97 375.833 1279.17 373.029 1279.17 369.583V361.25C1279.17 357.8 1281.97 355 1285.42 355H1364.58C1368.03 355 1370.83 357.8 1370.83 361.25V369.583H1370.83Z" fill="#4859ED"/>
<path d="M1283.33 415.417C1283.33 418.862 1286.14 421.667 1289.58 421.667C1293.03 421.667 1295.83 418.862 1295.83 415.417C1295.83 411.971 1293.03 409.167 1289.58 409.167C1286.14 409.167 1283.33 411.967 1283.33 415.417ZM1291.67 415.417C1291.67 416.567 1290.73 417.5 1289.58 417.5C1288.43 417.5 1287.5 416.567 1287.5 415.417C1287.5 414.267 1288.43 413.333 1289.58 413.333C1290.73 413.333 1291.67 414.267 1291.67 415.417Z" fill="#4859ED"/>
<path d="M1360.42 400.833C1360.04 400.833 1359.66 400.854 1359.29 400.887C1355.82 395.679 1349.99 392.5 1343.75 392.5C1334.05 392.5 1326.05 399.904 1325.1 409.358C1320.3 410.283 1316.67 414.517 1316.67 419.583C1316.67 425.325 1321.34 430 1327.08 430H1360.42C1368.46 430 1375 423.458 1375 415.416C1375 407.375 1368.46 400.833 1360.42 400.833ZM1360.42 425.833H1327.08C1323.64 425.833 1320.83 423.029 1320.83 419.583C1320.83 416.137 1323.64 413.333 1327.08 413.333C1328.23 413.333 1329.17 412.4 1329.17 411.25C1329.17 403.208 1335.71 396.666 1343.75 396.666C1348.96 396.666 1353.81 399.537 1356.41 404.158C1356.84 404.929 1357.7 405.337 1358.59 405.187C1359.19 405.083 1359.79 405 1360.42 405C1366.16 405 1370.83 409.675 1370.83 415.416C1370.83 421.158 1366.16 425.833 1360.42 425.833Z" fill="#4859ED"/>
<path d="M1360.42 359.167H1327.08C1325.93 359.167 1325 360.1 1325 361.25C1325 362.4 1325.93 363.333 1327.08 363.333H1360.42C1361.57 363.333 1362.5 362.4 1362.5 361.25C1362.5 360.1 1361.57 359.167 1360.42 359.167Z" fill="#4859ED"/>
<path d="M1360.42 367.5H1327.08C1325.93 367.5 1325 368.433 1325 369.583C1325 370.733 1325.93 371.667 1327.08 371.667H1360.42C1361.57 371.667 1362.5 370.733 1362.5 369.583C1362.5 368.433 1361.57 367.5 1360.42 367.5Z" fill="#4859ED"/>
<path d="M1289.58 359.167C1286.14 359.167 1283.33 361.967 1283.33 365.417C1283.33 368.867 1286.14 371.667 1289.58 371.667C1293.03 371.667 1295.83 368.862 1295.83 365.417C1295.83 361.971 1293.03 359.167 1289.58 359.167ZM1289.58 367.5C1288.43 367.5 1287.5 366.567 1287.5 365.417C1287.5 364.267 1288.43 363.333 1289.58 363.333C1290.73 363.333 1291.67 364.267 1291.67 365.417C1291.67 366.567 1290.73 367.5 1289.58 367.5Z" fill="#4859ED"/>
<path d="M1283.33 390.416C1283.33 393.862 1286.14 396.666 1289.58 396.666C1293.03 396.666 1295.83 393.862 1295.83 390.416C1295.83 386.971 1293.03 384.166 1289.58 384.166C1286.14 384.166 1283.33 386.966 1283.33 390.416ZM1291.67 390.416C1291.67 391.566 1290.73 392.5 1289.58 392.5C1288.43 392.5 1287.5 391.566 1287.5 390.416C1287.5 389.266 1288.43 388.333 1289.58 388.333C1290.73 388.333 1291.67 389.266 1291.67 390.416Z" fill="#4859ED"/>
<path opacity="0.4" d="M1321.65 506.714C1327.06 525.256 1354.11 555.204 1371.81 574.327C1397.38 588.827 1502.14 639.378 1504.5 652.5" stroke="#4859ED" strokeWidth="4" strokeLinecap="round" strokeDasharray="9 9"/>
<g filter="url(#filter6_d)">
<circle cx="1317.44" cy="491.751" r="7.59" fill="#4859ED"/>
</g>
<path opacity="0.8" d="M1673.79 474.15C1672.37 474.15 1671.05 473.86 1669.83 473.28C1668.63 472.7 1667.57 471.9 1666.65 470.88C1665.75 469.86 1665.04 468.7 1664.52 467.4C1664.02 466.1 1663.77 464.72 1663.77 463.26C1663.77 461.82 1664.02 460.46 1664.52 459.18C1665.02 457.88 1665.73 456.74 1666.65 455.76C1667.57 454.76 1668.64 453.98 1669.86 453.42C1671.1 452.84 1672.45 452.55 1673.91 452.55C1675.93 452.55 1677.63 452.98 1679.01 453.84C1680.39 454.68 1681.44 455.8 1682.16 457.2L1679.58 459.06C1679 457.9 1678.2 457.03 1677.18 456.45C1676.16 455.87 1675.04 455.58 1673.82 455.58C1672.48 455.58 1671.31 455.95 1670.31 456.69C1669.31 457.41 1668.54 458.36 1668 459.54C1667.46 460.72 1667.19 461.99 1667.19 463.35C1667.19 464.79 1667.49 466.1 1668.09 467.28C1668.69 468.44 1669.5 469.37 1670.52 470.07C1671.56 470.77 1672.74 471.12 1674.06 471.12C1676.26 471.12 1678.24 470.07 1680 467.97V465.72H1675.53V463.23H1682.82V474H1680V471.36C1678.22 473.22 1676.15 474.15 1673.79 474.15ZM1687.14 455.73V452.1H1690.44V455.73H1687.14ZM1687.14 474V458.31H1690.44V474H1687.14ZM1704.03 473.19C1703.61 473.39 1703.03 473.62 1702.29 473.88C1701.55 474.12 1700.76 474.24 1699.92 474.24C1698.88 474.24 1697.98 473.96 1697.22 473.4C1696.48 472.84 1696.11 471.93 1696.11 470.67V460.86H1694.04V458.31H1696.11V453.15H1699.41V458.31H1702.83V460.86H1699.41V469.62C1699.45 470.18 1699.62 470.59 1699.92 470.85C1700.24 471.09 1700.63 471.21 1701.09 471.21C1701.55 471.21 1701.99 471.13 1702.41 470.97C1702.83 470.81 1703.14 470.68 1703.34 470.58L1704.03 473.19ZM1728.55 457.71C1728.29 457.41 1727.86 457.1 1727.26 456.78C1726.68 456.44 1726 456.15 1725.22 455.91C1724.44 455.67 1723.63 455.55 1722.79 455.55C1721.37 455.55 1720.32 455.81 1719.64 456.33C1718.98 456.85 1718.65 457.57 1718.65 458.49C1718.65 459.17 1718.84 459.71 1719.22 460.11C1719.6 460.49 1720.18 460.82 1720.96 461.1C1721.74 461.36 1722.72 461.63 1723.9 461.91C1725.34 462.25 1726.58 462.66 1727.62 463.14C1728.68 463.6 1729.49 464.22 1730.05 465C1730.63 465.78 1730.92 466.81 1730.92 468.09C1730.92 469.55 1730.57 470.73 1729.87 471.63C1729.17 472.53 1728.22 473.19 1727.02 473.61C1725.84 474.01 1724.54 474.21 1723.12 474.21C1721.5 474.21 1719.93 473.96 1718.41 473.46C1716.89 472.96 1715.53 472.25 1714.33 471.33L1715.86 468.45C1716.2 468.79 1716.74 469.18 1717.48 469.62C1718.22 470.04 1719.08 470.41 1720.06 470.73C1721.06 471.03 1722.1 471.18 1723.18 471.18C1724.5 471.18 1725.52 470.95 1726.24 470.49C1726.96 470.01 1727.32 469.33 1727.32 468.45C1727.32 467.73 1727.08 467.16 1726.6 466.74C1726.14 466.3 1725.47 465.94 1724.59 465.66C1723.73 465.36 1722.69 465.05 1721.47 464.73C1720.07 464.37 1718.9 463.96 1717.96 463.5C1717.02 463.04 1716.31 462.46 1715.83 461.76C1715.37 461.06 1715.14 460.15 1715.14 459.03C1715.14 457.63 1715.48 456.45 1716.16 455.49C1716.84 454.51 1717.76 453.78 1718.92 453.3C1720.1 452.8 1721.42 452.55 1722.88 452.55C1724.32 452.55 1725.65 452.78 1726.87 453.24C1728.09 453.7 1729.16 454.27 1730.08 454.95L1728.55 457.71ZM1741.88 474.3C1740.26 474.3 1738.84 473.93 1737.62 473.19C1736.4 472.45 1735.45 471.47 1734.77 470.25C1734.09 469.01 1733.75 467.66 1733.75 466.2C1733.75 464.72 1734.09 463.36 1734.77 462.12C1735.45 460.88 1736.4 459.89 1737.62 459.15C1738.84 458.41 1740.27 458.04 1741.91 458.04C1743.55 458.04 1744.97 458.42 1746.17 459.18C1747.37 459.92 1748.29 460.9 1748.93 462.12C1749.59 463.34 1749.92 464.65 1749.92 466.05C1749.92 466.55 1749.89 466.95 1749.83 467.25H1737.26C1737.32 468.17 1737.57 468.98 1738.01 469.68C1738.47 470.36 1739.04 470.9 1739.72 471.3C1740.42 471.68 1741.18 471.87 1742 471.87C1742.88 471.87 1743.71 471.65 1744.49 471.21C1745.27 470.77 1745.81 470.19 1746.11 469.47L1748.93 470.28C1748.39 471.46 1747.49 472.43 1746.23 473.19C1744.99 473.93 1743.54 474.3 1741.88 474.3ZM1737.17 465.06H1746.65C1746.57 464.16 1746.31 463.37 1745.87 462.69C1745.43 461.99 1744.86 461.45 1744.16 461.07C1743.48 460.67 1742.72 460.47 1741.88 460.47C1741.06 460.47 1740.3 460.67 1739.6 461.07C1738.92 461.45 1738.36 461.99 1737.92 462.69C1737.48 463.37 1737.23 464.16 1737.17 465.06ZM1762.33 461.16C1761.05 461.2 1759.91 461.5 1758.91 462.06C1757.93 462.6 1757.23 463.38 1756.81 464.4V474H1753.51V458.31H1756.57V461.82C1757.11 460.74 1757.82 459.88 1758.7 459.24C1759.58 458.58 1760.51 458.22 1761.49 458.16C1761.67 458.16 1761.83 458.16 1761.97 458.16C1762.11 458.16 1762.23 458.17 1762.33 458.19V461.16ZM1770.01 474L1764.04 458.31H1767.46L1771.93 470.94L1776.4 458.31H1779.58L1773.61 474H1770.01ZM1789.43 474.3C1787.81 474.3 1786.39 473.93 1785.17 473.19C1783.95 472.45 1783 471.47 1782.32 470.25C1781.64 469.01 1781.3 467.66 1781.3 466.2C1781.3 464.72 1781.64 463.36 1782.32 462.12C1783 460.88 1783.95 459.89 1785.17 459.15C1786.39 458.41 1787.82 458.04 1789.46 458.04C1791.1 458.04 1792.52 458.42 1793.72 459.18C1794.92 459.92 1795.84 460.9 1796.48 462.12C1797.14 463.34 1797.47 464.65 1797.47 466.05C1797.47 466.55 1797.44 466.95 1797.38 467.25H1784.81C1784.87 468.17 1785.12 468.98 1785.56 469.68C1786.02 470.36 1786.59 470.9 1787.27 471.3C1787.97 471.68 1788.73 471.87 1789.55 471.87C1790.43 471.87 1791.26 471.65 1792.04 471.21C1792.82 470.77 1793.36 470.19 1793.66 469.47L1796.48 470.28C1795.94 471.46 1795.04 472.43 1793.78 473.19C1792.54 473.93 1791.09 474.3 1789.43 474.3ZM1784.72 465.06H1794.2C1794.12 464.16 1793.86 463.37 1793.42 462.69C1792.98 461.99 1792.41 461.45 1791.71 461.07C1791.03 460.67 1790.27 460.47 1789.43 460.47C1788.61 460.47 1787.85 460.67 1787.15 461.07C1786.47 461.45 1785.91 461.99 1785.47 462.69C1785.03 463.37 1784.78 464.16 1784.72 465.06ZM1809.89 461.16C1808.61 461.2 1807.47 461.5 1806.47 462.06C1805.49 462.6 1804.79 463.38 1804.37 464.4V474H1801.07V458.31H1804.13V461.82C1804.67 460.74 1805.38 459.88 1806.26 459.24C1807.14 458.58 1808.07 458.22 1809.05 458.16C1809.23 458.16 1809.39 458.16 1809.53 458.16C1809.67 458.16 1809.79 458.17 1809.89 458.19V461.16Z" fill="#4859ED"/>
<path d="M1764.81 331.281C1765.49 331.505 1766.22 331.786 1766.9 331.955C1774.96 334.033 1780.71 341.222 1780.99 349.535C1781.27 357.566 1775.86 365.093 1768.03 367.676C1767.24 367.957 1766.39 368.182 1765.32 368.519C1765.32 370.428 1765.32 372.394 1765.32 374.304C1765.27 383.796 1758.84 390.255 1749.2 390.311C1735 390.423 1720.86 390.311 1706.65 390.311C1705.47 390.311 1704.29 390.311 1702.93 390.311C1702.93 395.815 1702.93 400.926 1702.93 406.262C1703.33 406.431 1703.78 406.655 1704.29 406.768C1713.19 409.576 1718.71 416.765 1718.38 425.19C1718.04 434.064 1712.4 440.692 1703.22 442.995C1702.88 443.107 1702.6 443.332 1702.26 443.5C1700.57 443.5 1698.88 443.5 1697.19 443.5C1696.85 443.332 1696.57 443.107 1696.23 442.995C1687.1 440.748 1681.29 434.008 1681.01 425.246C1680.73 416.765 1686.2 409.52 1694.99 406.768C1695.49 406.599 1696 406.431 1696.68 406.15C1696.68 405.139 1696.68 404.24 1696.68 403.285C1696.68 392.614 1696.62 381.942 1696.73 371.327C1696.73 369.137 1696.23 368.126 1693.97 367.452C1686.31 365.205 1681.07 357.903 1681.01 349.928C1680.95 342.065 1686.03 334.932 1693.52 332.292C1694.76 331.842 1696 331.505 1697.24 331.056C1698.93 331.056 1700.62 331.056 1702.31 331.056C1702.93 331.281 1703.5 331.562 1704.12 331.674C1712.35 333.752 1718.09 340.773 1718.43 349.366C1718.77 357.454 1713.25 364.98 1705.19 367.508C1704.4 367.732 1703.67 368.013 1702.93 368.294C1702.93 373.63 1702.93 378.741 1702.93 384.077C1703.95 384.133 1704.85 384.245 1705.81 384.245C1719.95 384.245 1734.16 384.245 1748.3 384.245C1749.43 384.245 1750.56 384.133 1751.68 383.964C1755.68 383.29 1758.9 379.977 1759.29 376.045C1759.52 373.461 1759.35 370.878 1759.35 368.294C1758.9 368.126 1758.62 368.013 1758.33 367.901C1749.03 364.924 1743.62 358.128 1743.74 349.591C1743.85 340.661 1749.49 334.033 1759.18 331.449C1759.46 331.393 1759.63 331.168 1759.86 331C1761.43 331.281 1763.12 331.281 1764.81 331.281ZM1699.89 337.403C1692.9 337.291 1687.1 342.907 1686.98 349.816C1686.87 356.724 1692.62 362.565 1699.55 362.621C1706.43 362.677 1712.35 356.836 1712.35 349.984C1712.4 343.244 1706.71 337.515 1699.89 337.403ZM1699.55 437.49C1706.48 437.546 1712.35 431.874 1712.4 424.965C1712.46 418.113 1706.6 412.272 1699.72 412.272C1692.9 412.272 1687.15 417.888 1687.04 424.684C1686.87 431.593 1692.62 437.434 1699.55 437.49ZM1762.45 337.403C1755.46 337.347 1749.65 343.019 1749.6 349.928C1749.54 356.78 1755.4 362.621 1762.28 362.677C1769.04 362.677 1774.85 357.061 1774.96 350.265C1775.13 343.3 1769.38 337.459 1762.45 337.403Z" fill="#4859ED"/>
<path opacity="0.4" d="M1513.5 651C1518.91 632.458 1586.06 588.26 1603.76 569.138C1629.33 554.637 1665.57 520.794 1667.93 507.672" stroke="#4859ED" strokeWidth="4" strokeLinecap="round" strokeDasharray="9 9"/>
<g filter="url(#filter7_d)">
<circle cx="1668.88" cy="491.978" r="7.59" fill="#4859ED"/>
</g>
<g filter="url(#filter8_d)">
<rect x="1224.5" y="293.5" width="628" height="497" rx="17.5" stroke="#4859ED" strokeOpacity="0.6" strokeWidth="5"/>
</g>
<path opacity="0.8" d="M583.947 829.562L592.824 810.344H602.434L588.43 837.531V853H579.494V837.531L565.49 810.344H575.129L583.947 829.562ZM604.321 836.857C604.321 833.713 604.927 830.91 606.138 828.449C607.349 825.988 609.087 824.084 611.353 822.736C613.638 821.389 616.284 820.715 619.292 820.715C623.57 820.715 627.056 822.023 629.751 824.641C632.466 827.258 633.98 830.812 634.292 835.305L634.351 837.473C634.351 842.336 632.993 846.242 630.279 849.191C627.564 852.121 623.921 853.586 619.351 853.586C614.78 853.586 611.128 852.121 608.394 849.191C605.679 846.262 604.321 842.277 604.321 837.238V836.857ZM612.788 837.473C612.788 840.48 613.355 842.785 614.488 844.387C615.62 845.969 617.241 846.76 619.351 846.76C621.402 846.76 623.003 845.979 624.155 844.416C625.308 842.834 625.884 840.314 625.884 836.857C625.884 833.908 625.308 831.623 624.155 830.002C623.003 828.381 621.382 827.57 619.292 827.57C617.222 827.57 615.62 828.381 614.488 830.002C613.355 831.604 612.788 834.094 612.788 837.473ZM660.35 849.777C658.26 852.316 655.37 853.586 651.678 853.586C648.28 853.586 645.682 852.609 643.885 850.656C642.108 848.703 641.2 845.842 641.161 842.072V821.301H649.627V841.779C649.627 845.08 651.131 846.73 654.139 846.73C657.01 846.73 658.983 845.734 660.057 843.742V821.301H668.553V853H660.584L660.35 849.777ZM694.552 829.24C693.4 829.084 692.384 829.006 691.505 829.006C688.302 829.006 686.203 830.09 685.207 832.258V853H676.74V821.301H684.738L684.972 825.08C686.671 822.17 689.025 820.715 692.033 820.715C692.97 820.715 693.849 820.842 694.67 821.096L694.552 829.24ZM726.541 845.939H745.203V853H717.752V810.344H726.541V845.939ZM769.884 853C769.493 852.238 769.21 851.291 769.034 850.158C766.984 852.443 764.318 853.586 761.036 853.586C757.931 853.586 755.353 852.688 753.302 850.891C751.271 849.094 750.255 846.828 750.255 844.094C750.255 840.734 751.495 838.156 753.976 836.359C756.476 834.562 760.079 833.654 764.786 833.635H768.683V831.818C768.683 830.354 768.302 829.182 767.54 828.303C766.798 827.424 765.616 826.984 763.995 826.984C762.57 826.984 761.446 827.326 760.626 828.01C759.825 828.693 759.425 829.631 759.425 830.822H750.958C750.958 828.986 751.525 827.287 752.657 825.725C753.79 824.162 755.392 822.941 757.462 822.062C759.532 821.164 761.857 820.715 764.435 820.715C768.341 820.715 771.437 821.701 773.722 823.674C776.027 825.627 777.179 828.381 777.179 831.936V845.676C777.198 848.684 777.618 850.959 778.439 852.502V853H769.884ZM762.882 847.111C764.132 847.111 765.284 846.838 766.339 846.291C767.394 845.725 768.175 844.973 768.683 844.035V838.586H765.519C761.28 838.586 759.025 840.051 758.751 842.98L758.722 843.479C758.722 844.533 759.093 845.402 759.835 846.086C760.577 846.77 761.593 847.111 762.882 847.111ZM814.018 837.443C814.018 842.326 812.905 846.242 810.678 849.191C808.471 852.121 805.483 853.586 801.713 853.586C798.51 853.586 795.922 852.473 793.95 850.246V865.188H785.483V821.301H793.334L793.627 824.406C795.678 821.945 798.354 820.715 801.655 820.715C805.561 820.715 808.598 822.16 810.766 825.051C812.934 827.941 814.018 831.926 814.018 837.004V837.443ZM805.551 836.828C805.551 833.879 805.024 831.604 803.969 830.002C802.934 828.4 801.42 827.6 799.428 827.6C796.772 827.6 794.946 828.615 793.95 830.646V843.625C794.985 845.715 796.83 846.76 799.487 846.76C803.53 846.76 805.551 843.449 805.551 836.828ZM831.228 813.508V821.301H836.648V827.512H831.228V843.332C831.228 844.504 831.453 845.344 831.902 845.852C832.351 846.359 833.211 846.613 834.48 846.613C835.418 846.613 836.248 846.545 836.97 846.408V852.824C835.31 853.332 833.601 853.586 831.843 853.586C825.906 853.586 822.879 850.588 822.761 844.592V827.512H818.132V821.301H822.761V813.508H831.228ZM840.968 836.857C840.968 833.713 841.573 830.91 842.784 828.449C843.995 825.988 845.733 824.084 847.999 822.736C850.284 821.389 852.93 820.715 855.938 820.715C860.216 820.715 863.702 822.023 866.397 824.641C869.112 827.258 870.626 830.812 870.938 835.305L870.997 837.473C870.997 842.336 869.639 846.242 866.925 849.191C864.21 852.121 860.567 853.586 855.997 853.586C851.427 853.586 847.774 852.121 845.04 849.191C842.325 846.262 840.968 842.277 840.968 837.238V836.857ZM849.434 837.473C849.434 840.48 850.001 842.785 851.134 844.387C852.266 845.969 853.888 846.76 855.997 846.76C858.048 846.76 859.649 845.979 860.802 844.416C861.954 842.834 862.53 840.314 862.53 836.857C862.53 833.908 861.954 831.623 860.802 830.002C859.649 828.381 858.028 827.57 855.938 827.57C853.868 827.57 852.266 828.381 851.134 830.002C850.001 831.604 849.434 834.094 849.434 837.473ZM906.547 837.443C906.547 842.326 905.434 846.242 903.207 849.191C901 852.121 898.012 853.586 894.242 853.586C891.039 853.586 888.451 852.473 886.479 850.246V865.188H878.012V821.301H885.863L886.156 824.406C888.207 821.945 890.883 820.715 894.184 820.715C898.09 820.715 901.127 822.16 903.295 825.051C905.463 827.941 906.547 831.926 906.547 837.004V837.443ZM898.08 836.828C898.08 833.879 897.553 831.604 896.498 830.002C895.463 828.4 893.949 827.6 891.957 827.6C889.301 827.6 887.475 828.615 886.479 830.646V843.625C887.514 845.715 889.359 846.76 892.016 846.76C896.059 846.76 898.08 843.449 898.08 836.828Z" fill="#4859ED"/>
<path d="M1069.98 764H951.804C947.778 764.006 944.516 767.268 944.51 771.294V858.833C944.516 862.86 947.778 866.122 951.804 866.128H1069.98C1074.01 866.122 1077.27 862.86 1077.28 858.833V771.294C1077.27 767.268 1074.01 764.005 1069.98 764ZM1072.17 858.833C1072.17 860.041 1071.19 861.018 1069.98 861.021H951.804C950.597 861.018 949.619 860.041 949.616 858.833V771.294C949.619 770.087 950.597 769.109 951.804 769.106H1069.98C1071.19 769.109 1072.17 770.087 1072.17 771.294V858.833Z" fill="#4859ED"/>
<path d="M1086.95 869.664C1086.46 869.044 1085.72 868.681 1084.94 868.681H1021.11C1019.7 868.681 1018.55 869.824 1018.55 871.234V873.787H1003.23V871.234C1003.23 869.824 1002.09 868.681 1000.68 868.681H936.85C935.44 868.681 934.297 869.825 934.298 871.235C934.298 871.443 934.323 871.65 934.374 871.852L935.959 878.202C936.813 881.611 939.877 884.001 943.391 884H1078.39C1081.91 884.001 1084.97 881.609 1085.83 878.199L1087.41 871.852C1087.6 871.09 1087.43 870.283 1086.95 869.664ZM943.391 878.894C942.22 878.895 941.197 878.098 940.912 876.961L940.118 873.787H998.127V876.34C998.127 877.75 999.27 878.894 1000.68 878.894H943.391ZM1080.87 876.958C1080.59 878.096 1079.57 878.895 1078.39 878.894H1021.11C1022.52 878.894 1023.66 877.75 1023.66 876.34V873.787H1081.67L1080.87 876.958Z" fill="#4859ED"/>
<path opacity="0.4" d="M941 905C927.611 928.702 860.665 966.984 816.845 991.429C753.551 1009.96 655.843 1199.23 650 1216" stroke="#4859ED" strokeWidth="4" strokeLinecap="round" strokeDasharray="9 9"/>
<path opacity="0.4" d="M920 802C910.017 766.663 860.103 709.587 827.432 673.143C780.241 645.507 596.856 447.508 592.5 422.5" stroke="#4859ED" strokeWidth="4" strokeLinecap="round" strokeDasharray="9 9"/>
<path opacity="0.4" d="M1498 655.5C1482.48 669.434 1321.89 754.439 1271.1 768.81C1197.74 779.706 1093.77 805.139 1087 815" stroke="#4859ED" strokeWidth="4" strokeLinecap="round" strokeDasharray="9 9"/>
<defs>
<filter id="filter0_d" x="0" y="0" width="853" height="807" filterUnits="userSpaceOnUse" colorInterpolationFilters="sRGB">
<feFlood floodOpacity="0" result="BackgroundImageFix"/>
<feColorMatrix in="SourceAlpha" type="matrix" values="0 0 0 0 0 0 0 0 0 0 0 0 0 0 0 0 0 0 127 0" result="hardAlpha"/>
<feMorphology radius="10" operator="dilate" in="SourceAlpha" result="effect1_dropShadow"/>
<feOffset dx="-1" dy="14"/>
<feGaussianBlur stdDeviation="50"/>
<feColorMatrix type="matrix" values="0 0 0 0 0.788235 0 0 0 0 0.792157 0 0 0 0 0.8 0 0 0 0.28 0"/>
<feBlend mode="normal" in2="BackgroundImageFix" result="effect1_dropShadow"/>
<feBlend mode="normal" in="SourceGraphic" in2="effect1_dropShadow" result="shape"/>
</filter>
<filter id="filter1_d" x="326.015" y="500.012" width="37.18" height="37.18" filterUnits="userSpaceOnUse" colorInterpolationFilters="sRGB">
<feFlood floodOpacity="0" result="BackgroundImageFix"/>
<feColorMatrix in="SourceAlpha" type="matrix" values="0 0 0 0 0 0 0 0 0 0 0 0 0 0 0 0 0 0 127 0" result="hardAlpha"/>
<feMorphology radius="4" operator="dilate" in="SourceAlpha" result="effect1_dropShadow"/>
<feOffset dy="4"/>
<feGaussianBlur stdDeviation="3.5"/>
<feColorMatrix type="matrix" values="0 0 0 0 0 0 0 0 0 0 0 0 0 0 0 0 0 0 0.09 0"/>
<feBlend mode="normal" in2="BackgroundImageFix" result="effect1_dropShadow"/>
<feBlend mode="normal" in="SourceGraphic" in2="effect1_dropShadow" result="shape"/>
</filter>
<filter id="filter2_d" x="452.851" y="269.161" width="37.18" height="37.18" filterUnits="userSpaceOnUse" colorInterpolationFilters="sRGB">
<feFlood floodOpacity="0" result="BackgroundImageFix"/>
<feColorMatrix in="SourceAlpha" type="matrix" values="0 0 0 0 0 0 0 0 0 0 0 0 0 0 0 0 0 0 127 0" result="hardAlpha"/>
<feMorphology radius="4" operator="dilate" in="SourceAlpha" result="effect1_dropShadow"/>
<feOffset dy="4"/>
<feGaussianBlur stdDeviation="3.5"/>
<feColorMatrix type="matrix" values="0 0 0 0 0 0 0 0 0 0 0 0 0 0 0 0 0 0 0.09 0"/>
<feBlend mode="normal" in2="BackgroundImageFix" result="effect1_dropShadow"/>
<feBlend mode="normal" in="SourceGraphic" in2="effect1_dropShadow" result="shape"/>
</filter>
<filter id="filter3_d" x="477.852" y="1371.72" width="37.18" height="37.18" filterUnits="userSpaceOnUse" colorInterpolationFilters="sRGB">
<feFlood floodOpacity="0" result="BackgroundImageFix"/>
<feColorMatrix in="SourceAlpha" type="matrix" values="0 0 0 0 0 0 0 0 0 0 0 0 0 0 0 0 0 0 127 0" result="hardAlpha"/>
<feMorphology radius="4" operator="dilate" in="SourceAlpha" result="effect1_dropShadow"/>
<feOffset dy="4"/>
<feGaussianBlur stdDeviation="3.5"/>
<feColorMatrix type="matrix" values="0 0 0 0 0 0 0 0 0 0 0 0 0 0 0 0 0 0 0.09 0"/>
<feBlend mode="normal" in2="BackgroundImageFix" result="effect1_dropShadow"/>
<feBlend mode="normal" in="SourceGraphic" in2="effect1_dropShadow" result="shape"/>
</filter>
<filter id="filter4_d" x="807.293" y="1371.72" width="37.18" height="37.18" filterUnits="userSpaceOnUse" colorInterpolationFilters="sRGB">
<feFlood floodOpacity="0" result="BackgroundImageFix"/>
<feColorMatrix in="SourceAlpha" type="matrix" values="0 0 0 0 0 0 0 0 0 0 0 0 0 0 0 0 0 0 127 0" result="hardAlpha"/>
<feMorphology radius="4" operator="dilate" in="SourceAlpha" result="effect1_dropShadow"/>
<feOffset dy="4"/>
<feGaussianBlur stdDeviation="3.5"/>
<feColorMatrix type="matrix" values="0 0 0 0 0 0 0 0 0 0 0 0 0 0 0 0 0 0 0.09 0"/>
<feBlend mode="normal" in2="BackgroundImageFix" result="effect1_dropShadow"/>
<feBlend mode="normal" in="SourceGraphic" in2="effect1_dropShadow" result="shape"/>
</filter>
<filter id="filter5_d" x="339" y="974" width="786" height="749" filterUnits="userSpaceOnUse" colorInterpolationFilters="sRGB">
<feFlood floodOpacity="0" result="BackgroundImageFix"/>
<feColorMatrix in="SourceAlpha" type="matrix" values="0 0 0 0 0 0 0 0 0 0 0 0 0 0 0 0 0 0 127 0" result="hardAlpha"/>
<feMorphology radius="10" operator="dilate" in="SourceAlpha" result="effect1_dropShadow"/>
<feOffset dx="-1" dy="14"/>
<feGaussianBlur stdDeviation="50"/>
<feColorMatrix type="matrix" values="0 0 0 0 0.788235 0 0 0 0 0.792157 0 0 0 0 0.8 0 0 0 0.28 0"/>
<feBlend mode="normal" in2="BackgroundImageFix" result="effect1_dropShadow"/>
<feBlend mode="normal" in="SourceGraphic" in2="effect1_dropShadow" result="shape"/>
</filter>
<filter id="filter6_d" x="1298.85" y="477.161" width="37.18" height="37.18" filterUnits="userSpaceOnUse" colorInterpolationFilters="sRGB">
<feFlood floodOpacity="0" result="BackgroundImageFix"/>
<feColorMatrix in="SourceAlpha" type="matrix" values="0 0 0 0 0 0 0 0 0 0 0 0 0 0 0 0 0 0 127 0" result="hardAlpha"/>
<feMorphology radius="4" operator="dilate" in="SourceAlpha" result="effect1_dropShadow"/>
<feOffset dy="4"/>
<feGaussianBlur stdDeviation="3.5"/>
<feColorMatrix type="matrix" values="0 0 0 0 0 0 0 0 0 0 0 0 0 0 0 0 0 0 0.09 0"/>
<feBlend mode="normal" in2="BackgroundImageFix" result="effect1_dropShadow"/>
<feBlend mode="normal" in="SourceGraphic" in2="effect1_dropShadow" result="shape"/>
</filter>
<filter id="filter7_d" x="1650.29" y="477.388" width="37.18" height="37.18" filterUnits="userSpaceOnUse" colorInterpolationFilters="sRGB">
<feFlood floodOpacity="0" result="BackgroundImageFix"/>
<feColorMatrix in="SourceAlpha" type="matrix" values="0 0 0 0 0 0 0 0 0 0 0 0 0 0 0 0 0 0 127 0" result="hardAlpha"/>
<feMorphology radius="4" operator="dilate" in="SourceAlpha" result="effect1_dropShadow"/>
<feOffset dy="4"/>
<feGaussianBlur stdDeviation="3.5"/>
<feColorMatrix type="matrix" values="0 0 0 0 0 0 0 0 0 0 0 0 0 0 0 0 0 0 0.09 0"/>
<feBlend mode="normal" in2="BackgroundImageFix" result="effect1_dropShadow"/>
<feBlend mode="normal" in="SourceGraphic" in2="effect1_dropShadow" result="shape"/>
</filter>
<filter id="filter8_d" x="1111" y="195" width="853" height="722" filterUnits="userSpaceOnUse" colorInterpolationFilters="sRGB">
<feFlood floodOpacity="0" result="BackgroundImageFix"/>
<feColorMatrix in="SourceAlpha" type="matrix" values="0 0 0 0 0 0 0 0 0 0 0 0 0 0 0 0 0 0 127 0" result="hardAlpha"/>
<feMorphology radius="10" operator="dilate" in="SourceAlpha" result="effect1_dropShadow"/>
<feOffset dx="-1" dy="14"/>
<feGaussianBlur stdDeviation="50"/>
<feColorMatrix type="matrix" values="0 0 0 0 0.788235 0 0 0 0 0.792157 0 0 0 0 0.8 0 0 0 0.28 0"/>
<feBlend mode="normal" in2="BackgroundImageFix" result="effect1_dropShadow"/>
<feBlend mode="normal" in="SourceGraphic" in2="effect1_dropShadow" result="shape"/>
</filter>
</defs>
</svg>
